<svg width="603" height="559" viewBox="0 0 603 559" fill="none" xmlns="http://www.w3.org/2000/svg">
<g filter="url(#filter0_d_284_338)">
<path d="M475.766 181.116C475.766 181.116 480.289 124.59 417.046 86.9022C353.803 49.2144 263.462 56.5373 202.474 85.8512C141.487 115.165 150.532 182.122 130.247 225.042C109.962 267.962 63.6156 275.352 67.0044 333.924C70.3933 392.496 109.926 420.815 155.042 430.24C200.159 439.665 242.007 428.149 282.661 434.421C323.316 440.693 379.781 453.271 445.278 429.189C510.776 405.107 523.198 339.157 514.165 286.812C505.132 234.467 475.766 215.629 475.766 181.116Z" fill="#B7D3FF"/>
<path opacity="0.7" d="M475.766 181.116C475.766 181.116 480.289 124.59 417.046 86.9022C353.803 49.2144 263.462 56.5373 202.474 85.8512C141.487 115.165 150.532 182.122 130.247 225.042C109.962 267.962 63.6156 275.352 67.0044 333.924C70.3933 392.496 109.926 420.815 155.042 430.24C200.159 439.665 242.007 428.149 282.661 434.421C323.316 440.693 379.781 453.271 445.278 429.189C510.776 405.107 523.198 339.157 514.165 286.812C505.132 234.467 475.766 215.629 475.766 181.116Z" fill="white"/>
<path d="M414.985 403.732H182.492L200.847 387.309H396.63L414.985 403.732Z" fill="white" stroke="#263238" stroke-linecap="round" stroke-linejoin="round"/>
<path d="M389.152 393.648C389.152 397.002 347.05 399.764 295.084 399.764C243.117 399.764 201.016 397.024 201.016 393.648C201.016 390.272 243.117 387.521 295.084 387.521C347.05 387.521 389.152 390.261 389.152 393.648Z" fill="#B7D3FF"/>
<path opacity="0.5" d="M389.152 393.648C389.152 397.002 347.05 399.764 295.084 399.764C243.117 399.764 201.016 397.024 201.016 393.648C201.016 390.272 243.117 387.521 295.084 387.521C347.05 387.521 389.152 390.261 389.152 393.648Z" fill="white"/>
<path d="M414.985 403.732H182.492V418.948H414.985V403.732Z" fill="#263238" stroke="#263238" stroke-linecap="round" stroke-linejoin="round"/>
<path d="M431.435 435.36H166.043L182.493 418.948H414.986L431.435 435.36Z" fill="white" stroke="#263238" stroke-linecap="round" stroke-linejoin="round"/>
<path d="M431.386 435.36H166.09V451.37H431.386V435.36Z" fill="#263238" stroke="#263238" stroke-linecap="round" stroke-linejoin="round"/>
<path d="M296.172 241.41V139.08H338.177V96.0254" stroke="#263238" stroke-miterlimit="10"/>
<path d="M312.586 138.599V96.0254" stroke="#263238" stroke-miterlimit="10"/>
<path d="M299.305 257.721H492.699V232.23H529.663" stroke="#263238" stroke-miterlimit="10"/>
<path d="M289.826 256.838H105.923V229.604H66.1133" stroke="#263238" stroke-miterlimit="10"/>
<path d="M258.542 68.7793V107.451H234.844V132.047H264.234V214.656" stroke="#263238" stroke-miterlimit="10"/>
<path d="M388.418 183.017V127.654H404.53V103.93H417.808" stroke="#263238" stroke-miterlimit="10"/>
<path d="M193.141 177.75V135.568L179.863 123.259V92.5029" stroke="#263238" stroke-miterlimit="10"/>
<path d="M424.441 202.358H457.618V182.145H479.423V170.719H498.381" stroke="#263238" stroke-miterlimit="10"/>
<path d="M159.953 209.39H124.883V183.899H75.5938" stroke="#263238" stroke-miterlimit="10"/>
<path d="M192.188 347.352V370.203H176.076V395.694H129.621" stroke="#263238" stroke-miterlimit="10"/>
<path d="M369.461 350.873V374.597H406.425V364.938H416.857V385.14H449.093" stroke="#263238" stroke-miterlimit="10"/>
<path d="M340.875 96.0253C340.873 96.5201 340.713 97.0032 340.414 97.4135C340.116 97.8239 339.693 98.1431 339.2 98.331C338.706 98.5188 338.163 98.5668 337.64 98.4689C337.116 98.371 336.636 98.1316 336.26 97.781C335.883 97.4303 335.627 96.984 335.524 96.4986C335.42 96.0131 335.475 95.5101 335.679 95.0532C335.884 94.5962 336.23 94.2057 336.674 93.9311C337.118 93.6564 337.64 93.5098 338.174 93.5098C338.53 93.5098 338.882 93.5749 339.211 93.7015C339.539 93.828 339.838 94.0135 340.089 94.2472C340.34 94.4809 340.538 94.7583 340.673 95.0635C340.808 95.3686 340.877 95.6955 340.875 96.0253Z" fill="#263238" stroke="#263238" stroke-linecap="round" stroke-linejoin="round"/>
<path d="M315.383 96.0253C315.381 96.5201 315.221 97.0032 314.922 97.4135C314.624 97.8239 314.201 98.1431 313.707 98.331C313.214 98.5188 312.671 98.5668 312.148 98.4689C311.624 98.371 311.144 98.1316 310.767 97.781C310.391 97.4303 310.135 96.984 310.032 96.4986C309.928 96.0131 309.982 95.5101 310.187 95.0532C310.392 94.5962 310.738 94.2057 311.182 93.9311C311.626 93.6564 312.148 93.5098 312.682 93.5098C313.038 93.5098 313.39 93.5749 313.718 93.7015C314.047 93.828 314.345 94.0135 314.596 94.2472C314.847 94.4809 315.046 94.7583 315.181 95.0635C315.316 95.3686 315.385 95.6955 315.383 96.0253Z" fill="#263238" stroke="#263238" stroke-linecap="round" stroke-linejoin="round"/>
<path d="M261.267 68.0526C261.267 68.5506 261.107 69.0374 260.809 69.4513C260.51 69.8652 260.085 70.1876 259.589 70.3777C259.092 70.5678 258.546 70.6169 258.02 70.519C257.493 70.421 257.009 70.1803 256.63 69.8274C256.251 69.4745 255.994 69.0252 255.891 68.5365C255.787 68.0478 255.843 67.5417 256.05 67.0822C256.257 66.6228 256.607 66.2307 257.055 65.9556C257.502 65.6806 258.028 65.5349 258.565 65.5371C258.921 65.5371 259.273 65.6023 259.602 65.7288C259.931 65.8554 260.229 66.0409 260.48 66.2746C260.731 66.5083 260.93 66.7857 261.065 67.0908C261.2 67.396 261.268 67.7228 261.267 68.0526Z" fill="#263238" stroke="#263238" stroke-linecap="round" stroke-linejoin="round"/>
<path d="M182.59 91.2401C182.588 91.7349 182.428 92.218 182.129 92.6284C181.831 93.0387 181.408 93.358 180.914 93.5458C180.421 93.7336 179.878 93.7816 179.355 93.6838C178.831 93.5859 178.351 93.3465 177.974 92.9958C177.598 92.6451 177.342 92.1989 177.239 91.7134C177.135 91.2279 177.189 90.725 177.394 90.268C177.599 89.811 177.945 89.4206 178.389 89.1459C178.833 88.8712 179.355 88.7246 179.889 88.7246C180.245 88.7246 180.597 88.7898 180.926 88.9163C181.254 89.0429 181.552 89.2283 181.803 89.4621C182.054 89.6958 182.253 89.9732 182.388 90.2783C182.523 90.5834 182.592 90.9103 182.59 91.2401Z" fill="#263238" stroke="#263238" stroke-linecap="round" stroke-linejoin="round"/>
<path d="M78.2942 183.9C78.2965 184.398 78.1391 184.886 77.8419 185.302C77.5446 185.717 77.121 186.041 76.6247 186.233C76.1283 186.425 75.5818 186.475 75.0543 186.379C74.5268 186.282 74.0422 186.042 73.662 185.69C73.2817 185.337 73.0231 184.888 72.9187 184.399C72.8144 183.91 72.8692 183.403 73.0761 182.943C73.2829 182.483 73.6326 182.09 74.0807 181.815C74.5287 181.539 75.055 181.393 75.5927 181.396C76.3092 181.396 76.9963 181.659 77.5029 182.129C78.0095 182.599 78.2942 183.236 78.2942 183.9Z" fill="#263238" stroke="#263238" stroke-linecap="round" stroke-linejoin="round"/>
<path d="M68.8997 229.525C68.8997 230.023 68.7405 230.509 68.4423 230.923C68.1442 231.336 67.7204 231.659 67.2246 231.849C66.7287 232.04 66.1831 232.089 65.6568 231.992C65.1304 231.895 64.6469 231.656 64.2674 231.304C63.8879 230.952 63.6295 230.504 63.5248 230.016C63.4201 229.528 63.4738 229.022 63.6792 228.563C63.8846 228.103 64.2324 227.71 64.6786 227.434C65.1249 227.157 65.6495 227.01 66.1862 227.01C66.9058 227.01 67.596 227.275 68.1049 227.747C68.6138 228.218 68.8997 228.858 68.8997 229.525Z" fill="#263238" stroke="#263238" stroke-linecap="round" stroke-linejoin="round"/>
<path d="M132.564 395.213C132.564 395.711 132.404 396.198 132.106 396.611C131.807 397.025 131.382 397.348 130.886 397.538C130.389 397.728 129.843 397.777 129.316 397.679C128.79 397.581 128.306 397.34 127.927 396.988C127.548 396.635 127.291 396.185 127.187 395.697C127.084 395.208 127.14 394.702 127.347 394.242C127.554 393.783 127.904 393.391 128.351 393.116C128.799 392.841 129.325 392.695 129.862 392.697C130.218 392.697 130.57 392.762 130.899 392.889C131.227 393.016 131.526 393.201 131.777 393.435C132.028 393.668 132.227 393.946 132.362 394.251C132.497 394.556 132.565 394.883 132.564 395.213Z" fill="#263238" stroke="#263238" stroke-linecap="round" stroke-linejoin="round"/>
<path d="M453.169 384.648C453.172 385.146 453.014 385.633 452.718 386.048C452.421 386.464 451.998 386.788 451.502 386.98C451.007 387.172 450.461 387.223 449.934 387.128C449.407 387.032 448.922 386.793 448.541 386.442C448.161 386.09 447.901 385.642 447.795 385.154C447.69 384.666 447.743 384.159 447.948 383.699C448.153 383.239 448.5 382.845 448.947 382.568C449.393 382.291 449.918 382.144 450.456 382.144C450.811 382.142 451.164 382.206 451.493 382.331C451.822 382.456 452.122 382.64 452.374 382.873C452.626 383.106 452.826 383.382 452.962 383.687C453.099 383.992 453.169 384.318 453.169 384.648Z" fill="#263238" stroke="#263238" stroke-linecap="round" stroke-linejoin="round"/>
<path d="M533.739 231.739C533.739 232.234 533.58 232.718 533.284 233.13C532.987 233.542 532.565 233.863 532.071 234.052C531.578 234.242 531.034 234.292 530.51 234.195C529.986 234.098 529.505 233.86 529.127 233.51C528.749 233.159 528.492 232.713 528.388 232.227C528.284 231.741 528.337 231.238 528.542 230.78C528.746 230.323 529.092 229.932 529.537 229.656C529.981 229.381 530.503 229.234 531.037 229.234C531.754 229.234 532.441 229.498 532.948 229.968C533.454 230.438 533.739 231.075 533.739 231.739Z" fill="#263238" stroke="#263238" stroke-linecap="round" stroke-linejoin="round"/>
<path d="M502.36 170.182C502.36 170.677 502.201 171.162 501.905 171.573C501.608 171.985 501.186 172.306 500.692 172.496C500.199 172.685 499.655 172.735 499.131 172.638C498.607 172.542 498.126 172.303 497.748 171.953C497.37 171.603 497.113 171.156 497.009 170.671C496.905 170.185 496.958 169.681 497.163 169.224C497.367 168.766 497.713 168.375 498.158 168.1C498.602 167.825 499.124 167.678 499.658 167.678C500.375 167.678 501.062 167.942 501.569 168.411C502.075 168.881 502.36 169.518 502.36 170.182Z" fill="#263238" stroke="#263238" stroke-linecap="round" stroke-linejoin="round"/>
<path d="M422.258 103.862C422.258 104.357 422.1 104.841 421.803 105.253C421.506 105.665 421.084 105.986 420.591 106.175C420.097 106.365 419.554 106.415 419.03 106.318C418.506 106.221 418.025 105.983 417.647 105.633C417.269 105.282 417.012 104.836 416.907 104.35C416.803 103.865 416.857 103.361 417.061 102.903C417.266 102.446 417.612 102.055 418.056 101.779C418.5 101.504 419.023 101.357 419.557 101.357C420.273 101.357 420.96 101.621 421.467 102.091C421.974 102.561 422.258 103.198 422.258 103.862Z" fill="#263238" stroke="#263238" stroke-linecap="round" stroke-linejoin="round"/>
<path d="M331.553 369.499V347.698H260.785V369.499C260.763 376.627 258.107 383.532 253.26 389.064L250.16 392.619H342.154L339.066 389.064C334.219 383.533 331.567 376.626 331.553 369.499Z" fill="white"/>
<mask id="mask0_284_338" style="mask-type:luminance" maskUnits="userSpaceOnUse" x="250" y="347" width="93" height="46">
<path d="M331.553 369.499V347.698H260.785V369.499C260.763 376.627 258.107 383.532 253.26 389.064L250.16 392.619H342.154L339.066 389.064C334.219 383.533 331.567 376.626 331.553 369.499Z" fill="white"/>
</mask>
<g mask="url(#mask0_284_338)">
<path d="M256.445 384.771H335.897C333.054 380.113 331.558 374.852 331.555 369.499V347.698H260.787V369.499C260.784 374.852 259.288 380.113 256.445 384.771Z" fill="#B7D3FF"/>
<path opacity="0.3" d="M256.445 384.771H335.897C333.054 380.113 331.558 374.852 331.555 369.499V347.698H260.787V369.499C260.784 374.852 259.288 380.113 256.445 384.771Z" fill="white"/>
<path d="M256.445 361.785H335.897C333.054 357.126 331.558 351.865 331.555 346.513V324.712H260.787V346.513C260.784 351.865 259.288 357.126 256.445 361.785Z" fill="#263238"/>
</g>
<path d="M331.553 369.499V347.698H260.785V369.499C260.763 376.627 258.107 383.532 253.26 389.064L250.16 392.619H342.154L339.066 389.064C334.219 383.533 331.567 376.626 331.553 369.499Z" stroke="#263238" stroke-linecap="round" stroke-linejoin="round"/>
<path d="M428.145 160.98H164.2C158.551 160.98 153.973 165.225 153.973 170.461V345.082C153.973 350.318 158.551 354.562 164.2 354.562H428.145C433.793 354.562 438.372 350.318 438.372 345.082V170.461C438.372 165.225 433.793 160.98 428.145 160.98Z" fill="#263238" stroke="#263238" stroke-linecap="round" stroke-linejoin="round"/>
<path d="M153.973 324.478H438.372V345.082C438.372 347.597 437.294 350.008 435.376 351.786C433.458 353.564 430.857 354.563 428.145 354.563H164.2C161.487 354.563 158.886 353.564 156.968 351.786C155.05 350.008 153.973 347.597 153.973 345.082V324.478Z" fill="white" stroke="#263238" stroke-linecap="round" stroke-linejoin="round"/>
<path d="M424.054 173.033H168.273V309.798H424.054V173.033Z" fill="white" stroke="#263238" stroke-linecap="round" stroke-linejoin="round"/>
<path d="M301.417 344.344C301.438 343.378 301.149 342.428 300.586 341.615C300.023 340.802 299.211 340.163 298.255 339.78C297.298 339.396 296.24 339.285 295.215 339.461C294.191 339.638 293.246 340.093 292.501 340.769C291.757 341.445 291.246 342.311 291.035 343.257C290.823 344.203 290.921 345.186 291.314 346.08C291.708 346.975 292.38 347.74 293.245 348.279C294.11 348.818 295.129 349.106 296.171 349.106C297.547 349.118 298.873 348.624 299.856 347.731C300.84 346.838 301.401 345.62 301.417 344.344Z" fill="#263238" stroke="#263238" stroke-linecap="round" stroke-linejoin="round"/>
<path d="M342.178 392.652H250.172V396.543H342.178V392.652Z" fill="white" stroke="#263238" stroke-linecap="round" stroke-linejoin="round"/>
<path d="M296.558 165.934C283.702 177.114 250.73 188.294 212.367 212.096C212.367 212.096 214.779 292.592 296.558 336.54V165.934Z" fill="#B7D3FF" stroke="#263238" stroke-linecap="round" stroke-linejoin="round"/>
<path d="M296.555 165.934C309.423 177.114 342.383 188.294 380.758 212.096C380.758 212.096 378.346 292.592 296.555 336.54V165.934Z" fill="#263238" stroke="#263238" stroke-linecap="round" stroke-linejoin="round"/>
<path d="M296.555 172.787C280.998 182.782 254.116 192.296 218.539 214.366C218.539 214.366 220.77 288.936 296.555 329.698C372.352 288.936 374.583 214.366 374.583 214.366C339.006 192.296 312.209 182.782 296.555 172.787Z" fill="#263238" stroke="#263238" stroke-linecap="round" stroke-linejoin="round"/>
<path d="M374.583 214.366C339.006 192.307 312.209 182.782 296.555 172.787V329.698C372.352 288.936 374.583 214.366 374.583 214.366Z" fill="#B7D3FF" stroke="#263238" stroke-linecap="round" stroke-linejoin="round"/>
<path d="M439.25 253.842H153.09V271.014H439.25V253.842Z" fill="#263238" stroke="#263238" stroke-linecap="round" stroke-linejoin="round"/>
<path d="M158.721 256.569C158.729 256.922 158.622 257.269 158.416 257.566C158.21 257.863 157.913 258.096 157.563 258.235C157.213 258.375 156.827 258.415 156.452 258.35C156.078 258.286 155.733 258.119 155.461 257.872C155.19 257.625 155.003 257.308 154.926 256.962C154.849 256.617 154.885 256.257 155.029 255.931C155.173 255.604 155.419 255.324 155.735 255.127C156.051 254.931 156.423 254.825 156.804 254.825C157.054 254.822 157.301 254.865 157.533 254.951C157.765 255.038 157.976 255.165 158.154 255.328C158.332 255.49 158.474 255.683 158.572 255.896C158.669 256.109 158.72 256.338 158.721 256.569Z" fill="white"/>
<path d="M155.707 257.531C155.917 257.736 156.188 257.878 156.485 257.939C156.783 258 157.093 257.977 157.377 257.874C157.66 257.771 157.904 257.592 158.077 257.359C158.25 257.127 158.344 256.852 158.348 256.57C158.344 256.234 158.207 255.912 157.962 255.664C157.166 256.238 156.412 256.862 155.707 257.531Z" fill="#263238"/>
<path d="M166.249 256.569C166.259 256.925 166.154 257.275 165.948 257.575C165.742 257.875 165.444 258.111 165.092 258.254C164.74 258.396 164.351 258.438 163.974 258.374C163.596 258.31 163.248 258.143 162.973 257.895C162.698 257.647 162.51 257.328 162.431 256.98C162.353 256.632 162.388 256.27 162.533 255.94C162.677 255.611 162.924 255.329 163.243 255.13C163.561 254.932 163.936 254.825 164.32 254.825C164.57 254.822 164.818 254.865 165.051 254.951C165.283 255.037 165.495 255.165 165.674 255.327C165.853 255.489 165.996 255.682 166.095 255.895C166.194 256.108 166.246 256.337 166.249 256.569Z" fill="white"/>
<path d="M163.223 257.531C163.433 257.736 163.704 257.878 164.001 257.939C164.298 258 164.609 257.977 164.892 257.874C165.176 257.771 165.42 257.592 165.593 257.359C165.766 257.127 165.86 256.852 165.864 256.57C165.86 256.234 165.722 255.912 165.478 255.664C164.684 256.241 163.93 256.865 163.223 257.531Z" fill="#263238"/>
<path d="M173.761 256.569C173.723 257.018 173.504 257.437 173.147 257.742C172.791 258.047 172.323 258.217 171.838 258.217C171.352 258.217 170.885 258.047 170.528 257.742C170.172 257.437 169.952 257.018 169.914 256.569C169.952 256.121 170.172 255.702 170.528 255.397C170.885 255.091 171.352 254.922 171.838 254.922C172.323 254.922 172.791 255.091 173.147 255.397C173.504 255.702 173.723 256.121 173.761 256.569Z" fill="white"/>
<path d="M170.734 257.531C170.878 257.669 171.051 257.779 171.241 257.854C171.432 257.929 171.637 257.967 171.844 257.967C172.043 257.969 172.241 257.934 172.426 257.864C172.611 257.795 172.78 257.692 172.922 257.562C173.064 257.433 173.177 257.278 173.255 257.108C173.333 256.938 173.374 256.755 173.375 256.57C173.376 256.233 173.238 255.909 172.99 255.664C172.195 256.241 171.442 256.865 170.734 257.531Z" fill="#263238"/>
<path d="M181.276 256.569C181.283 256.922 181.177 257.269 180.971 257.566C180.764 257.863 180.468 258.096 180.118 258.235C179.768 258.375 179.382 258.415 179.007 258.35C178.633 258.286 178.288 258.119 178.016 257.872C177.744 257.625 177.558 257.308 177.481 256.962C177.404 256.617 177.44 256.257 177.584 255.931C177.728 255.604 177.974 255.324 178.29 255.127C178.606 254.931 178.978 254.825 179.359 254.825C179.608 254.822 179.856 254.865 180.088 254.951C180.32 255.038 180.531 255.165 180.709 255.328C180.887 255.49 181.029 255.683 181.126 255.896C181.224 256.109 181.275 256.338 181.276 256.569Z" fill="white"/>
<path d="M178.246 257.531C178.458 257.734 178.729 257.875 179.027 257.935C179.324 257.995 179.634 257.972 179.918 257.869C180.202 257.767 180.446 257.588 180.621 257.357C180.795 257.126 180.892 256.852 180.899 256.57C180.895 256.234 180.758 255.912 180.513 255.664C179.713 256.238 178.955 256.862 178.246 257.531Z" fill="#263238"/>
<path d="M188.788 256.569C188.795 256.922 188.689 257.269 188.482 257.566C188.276 257.863 187.979 258.096 187.63 258.235C187.28 258.375 186.893 258.415 186.519 258.35C186.145 258.286 185.8 258.119 185.528 257.872C185.256 257.625 185.07 257.308 184.993 256.962C184.916 256.617 184.952 256.257 185.096 255.931C185.24 255.604 185.485 255.324 185.801 255.127C186.117 254.931 186.49 254.825 186.87 254.825C187.12 254.822 187.368 254.865 187.6 254.951C187.831 255.038 188.042 255.165 188.221 255.328C188.399 255.49 188.541 255.683 188.638 255.896C188.735 256.109 188.786 256.338 188.788 256.569Z" fill="white"/>
<path d="M185.727 257.531C185.871 257.669 186.043 257.778 186.234 257.853C186.424 257.928 186.629 257.967 186.836 257.967C187.037 257.97 187.236 257.936 187.422 257.867C187.609 257.799 187.778 257.696 187.922 257.566C188.065 257.437 188.18 257.282 188.258 257.111C188.337 256.939 188.378 256.756 188.38 256.57C188.376 256.234 188.238 255.912 187.994 255.664C187.196 256.241 186.439 256.865 185.727 257.531Z" fill="#263238"/>
<path d="M196.3 256.569C196.307 256.922 196.2 257.269 195.994 257.566C195.788 257.863 195.491 258.096 195.141 258.235C194.792 258.375 194.405 258.415 194.031 258.35C193.656 258.286 193.311 258.119 193.039 257.872C192.768 257.625 192.581 257.308 192.504 256.962C192.427 256.617 192.463 256.257 192.607 255.931C192.751 255.604 192.997 255.324 193.313 255.127C193.629 254.931 194.001 254.825 194.382 254.825C194.632 254.822 194.88 254.865 195.111 254.951C195.343 255.038 195.554 255.165 195.732 255.328C195.91 255.49 196.052 255.683 196.15 255.896C196.247 256.109 196.298 256.338 196.3 256.569Z" fill="white"/>
<path d="M193.285 257.531C193.495 257.736 193.766 257.878 194.063 257.939C194.361 258 194.671 257.977 194.955 257.874C195.238 257.771 195.482 257.592 195.655 257.359C195.828 257.127 195.923 256.852 195.926 256.57C195.922 256.234 195.785 255.912 195.54 255.664C194.744 256.238 193.99 256.862 193.285 257.531Z" fill="#263238"/>
<path d="M203.816 256.569C203.825 256.925 203.72 257.275 203.514 257.575C203.308 257.875 203.01 258.111 202.658 258.254C202.307 258.396 201.917 258.438 201.54 258.374C201.163 258.31 200.814 258.143 200.54 257.895C200.265 257.647 200.076 257.328 199.998 256.98C199.919 256.632 199.955 256.27 200.099 255.94C200.244 255.611 200.491 255.329 200.809 255.13C201.127 254.932 201.502 254.825 201.886 254.825C202.136 254.822 202.385 254.865 202.617 254.951C202.849 255.037 203.061 255.165 203.241 255.327C203.42 255.489 203.563 255.682 203.661 255.895C203.76 256.108 203.812 256.337 203.816 256.569Z" fill="white"/>
<path d="M200.801 257.531C201.011 257.736 201.282 257.878 201.579 257.939C201.876 258 202.187 257.977 202.47 257.874C202.754 257.771 202.998 257.592 203.171 257.359C203.344 257.127 203.438 256.852 203.442 256.57C203.438 256.234 203.3 255.912 203.056 255.664C202.262 256.241 201.509 256.865 200.801 257.531Z" fill="#263238"/>
<path d="M211.339 256.569C211.346 256.922 211.239 257.269 211.033 257.566C210.827 257.863 210.53 258.096 210.18 258.235C209.831 258.375 209.444 258.415 209.07 258.35C208.695 258.286 208.35 258.119 208.079 257.872C207.807 257.625 207.62 257.308 207.543 256.962C207.467 256.617 207.502 256.257 207.646 255.931C207.79 255.604 208.036 255.324 208.352 255.127C208.668 254.931 209.04 254.825 209.421 254.825C209.671 254.822 209.919 254.865 210.15 254.951C210.382 255.038 210.593 255.165 210.771 255.328C210.95 255.49 211.091 255.683 211.189 255.896C211.286 256.109 211.337 256.338 211.339 256.569Z" fill="white"/>
<path d="M208.312 257.531C208.456 257.669 208.629 257.779 208.819 257.854C209.01 257.929 209.215 257.967 209.422 257.967C209.622 257.969 209.819 257.934 210.004 257.864C210.189 257.795 210.358 257.692 210.5 257.562C210.642 257.433 210.756 257.278 210.833 257.108C210.911 256.938 210.952 256.755 210.954 256.57C210.954 256.233 210.816 255.909 210.568 255.664C209.774 256.241 209.02 256.865 208.312 257.531Z" fill="#263238"/>
<path d="M218.854 256.569C218.861 256.922 218.755 257.269 218.549 257.566C218.343 257.863 218.046 258.096 217.696 258.235C217.346 258.375 216.96 258.415 216.585 258.35C216.211 258.286 215.866 258.119 215.594 257.872C215.322 257.625 215.136 257.308 215.059 256.962C214.982 256.617 215.018 256.257 215.162 255.931C215.306 255.604 215.552 255.324 215.868 255.127C216.184 254.931 216.556 254.825 216.937 254.825C217.186 254.822 217.434 254.865 217.666 254.951C217.898 255.038 218.109 255.165 218.287 255.328C218.465 255.49 218.607 255.683 218.704 255.896C218.802 256.109 218.853 256.338 218.854 256.569Z" fill="white"/>
<path d="M215.875 257.531C216.087 257.734 216.358 257.875 216.656 257.935C216.953 257.995 217.263 257.972 217.547 257.869C217.831 257.767 218.075 257.588 218.25 257.357C218.424 257.126 218.521 256.852 218.528 256.57C218.524 256.234 218.387 255.912 218.142 255.664C217.344 256.241 216.587 256.865 215.875 257.531Z" fill="#263238"/>
<path d="M226.366 256.569C226.373 256.922 226.267 257.269 226.061 257.566C225.854 257.863 225.557 258.096 225.208 258.235C224.858 258.375 224.471 258.415 224.097 258.35C223.723 258.286 223.378 258.119 223.106 257.872C222.834 257.625 222.648 257.308 222.571 256.962C222.494 256.617 222.53 256.257 222.674 255.931C222.818 255.604 223.063 255.324 223.379 255.127C223.696 254.931 224.068 254.825 224.448 254.825C224.698 254.822 224.946 254.865 225.178 254.951C225.409 255.038 225.62 255.165 225.799 255.328C225.977 255.49 226.119 255.683 226.216 255.896C226.313 256.109 226.364 256.338 226.366 256.569Z" fill="white"/>
<path d="M223.34 257.531C223.484 257.669 223.657 257.778 223.847 257.853C224.038 257.928 224.242 257.967 224.449 257.967C224.65 257.97 224.849 257.936 225.035 257.867C225.222 257.799 225.392 257.696 225.535 257.566C225.679 257.437 225.793 257.282 225.872 257.111C225.95 256.939 225.991 256.756 225.993 256.57C225.989 256.234 225.852 255.912 225.607 255.664C224.809 256.241 224.052 256.865 223.34 257.531Z" fill="#263238"/>
<path d="M233.882 256.569C233.889 256.922 233.782 257.269 233.576 257.566C233.37 257.863 233.073 258.096 232.723 258.235C232.374 258.375 231.987 258.415 231.613 258.35C231.238 258.286 230.893 258.119 230.621 257.872C230.35 257.625 230.163 257.308 230.086 256.962C230.009 256.617 230.045 256.257 230.189 255.931C230.333 255.604 230.579 255.324 230.895 255.127C231.211 254.931 231.583 254.825 231.964 254.825C232.214 254.822 232.462 254.865 232.693 254.951C232.925 255.038 233.136 255.165 233.314 255.328C233.492 255.49 233.634 255.683 233.732 255.896C233.829 256.109 233.88 256.338 233.882 256.569Z" fill="white"/>
<path d="M230.867 257.531C231.077 257.736 231.348 257.878 231.646 257.939C231.943 258 232.253 257.977 232.537 257.874C232.82 257.771 233.064 257.592 233.237 257.359C233.41 257.127 233.505 256.852 233.508 256.57C233.504 256.234 233.367 255.912 233.122 255.664C232.328 256.241 231.575 256.865 230.867 257.531Z" fill="#263238"/>
<path d="M241.405 256.569C241.415 256.925 241.31 257.276 241.103 257.576C240.897 257.877 240.598 258.113 240.246 258.255C239.893 258.397 239.503 258.438 239.125 258.373C238.748 258.308 238.399 258.14 238.125 257.891C237.851 257.642 237.663 257.322 237.586 256.973C237.509 256.624 237.546 256.262 237.692 255.933C237.839 255.603 238.088 255.322 238.408 255.125C238.728 254.927 239.104 254.823 239.488 254.825C239.738 254.822 239.985 254.865 240.217 254.951C240.449 255.038 240.66 255.165 240.838 255.328C241.016 255.49 241.158 255.683 241.256 255.896C241.353 256.109 241.404 256.338 241.405 256.569Z" fill="white"/>
<path d="M238.379 257.531C238.589 257.736 238.86 257.878 239.157 257.939C239.455 258 239.765 257.977 240.048 257.874C240.332 257.771 240.576 257.592 240.749 257.359C240.922 257.127 241.016 256.852 241.02 256.57C241.021 256.233 240.883 255.909 240.634 255.664C239.84 256.241 239.087 256.865 238.379 257.531Z" fill="#263238"/>
<path d="M248.921 256.569C248.928 256.922 248.822 257.269 248.615 257.566C248.409 257.863 248.112 258.096 247.762 258.235C247.413 258.375 247.026 258.415 246.652 258.35C246.277 258.286 245.932 258.119 245.661 257.872C245.389 257.625 245.202 257.308 245.126 256.962C245.049 256.617 245.084 256.257 245.228 255.931C245.372 255.604 245.618 255.324 245.934 255.127C246.25 254.931 246.622 254.825 247.003 254.825C247.253 254.822 247.501 254.865 247.732 254.951C247.964 255.038 248.175 255.165 248.353 255.328C248.532 255.49 248.673 255.683 248.771 255.896C248.868 256.109 248.919 256.338 248.921 256.569Z" fill="white"/>
<path d="M245.891 257.531C246.102 257.734 246.374 257.875 246.671 257.935C246.969 257.995 247.279 257.972 247.563 257.869C247.846 257.767 248.091 257.588 248.265 257.357C248.44 257.126 248.537 256.852 248.544 256.57C248.54 256.234 248.402 255.912 248.158 255.664C247.357 256.238 246.6 256.862 245.891 257.531Z" fill="#263238"/>
<path d="M256.432 256.569C256.44 256.922 256.333 257.269 256.127 257.566C255.921 257.863 255.624 258.096 255.274 258.235C254.924 258.375 254.538 258.415 254.163 258.35C253.789 258.286 253.444 258.119 253.172 257.872C252.9 257.625 252.714 257.308 252.637 256.962C252.56 256.617 252.596 256.257 252.74 255.931C252.884 255.604 253.13 255.324 253.446 255.127C253.762 254.931 254.134 254.825 254.515 254.825C254.765 254.822 255.012 254.865 255.244 254.951C255.476 255.038 255.687 255.165 255.865 255.328C256.043 255.49 256.185 255.683 256.283 255.896C256.38 256.109 256.431 256.338 256.432 256.569Z" fill="white"/>
<path d="M253.406 257.531C253.551 257.669 253.723 257.778 253.914 257.853C254.104 257.928 254.309 257.967 254.516 257.967C254.716 257.97 254.916 257.936 255.102 257.867C255.288 257.799 255.458 257.696 255.602 257.566C255.745 257.437 255.859 257.282 255.938 257.111C256.017 256.939 256.058 256.756 256.059 256.57C256.055 256.234 255.918 255.912 255.674 255.664C254.876 256.241 254.118 256.865 253.406 257.531Z" fill="#263238"/>
<path d="M158.721 267.649C158.731 268.002 158.627 268.35 158.422 268.649C158.217 268.947 157.921 269.181 157.572 269.323C157.222 269.464 156.835 269.506 156.46 269.443C156.085 269.379 155.739 269.213 155.466 268.967C155.193 268.72 155.005 268.403 154.927 268.057C154.849 267.711 154.884 267.352 155.028 267.024C155.172 266.697 155.417 266.416 155.733 266.219C156.05 266.022 156.422 265.916 156.804 265.916C157.052 265.913 157.299 265.956 157.53 266.041C157.761 266.127 157.972 266.253 158.15 266.414C158.328 266.575 158.47 266.767 158.568 266.979C158.666 267.191 158.718 267.419 158.721 267.649Z" fill="white"/>
<path d="M155.707 268.622C155.848 268.76 156.019 268.87 156.207 268.945C156.396 269.02 156.599 269.058 156.804 269.058C157.006 269.059 157.205 269.024 157.392 268.954C157.578 268.884 157.748 268.781 157.891 268.65C158.034 268.519 158.149 268.363 158.227 268.192C158.305 268.02 158.347 267.836 158.348 267.649C158.341 267.318 158.204 267 157.962 266.755C157.166 267.329 156.412 267.953 155.707 268.622Z" fill="#263238"/>
<path d="M166.249 267.649C166.261 268.005 166.158 268.356 165.953 268.658C165.749 268.959 165.452 269.197 165.1 269.341C164.749 269.485 164.359 269.528 163.981 269.466C163.603 269.403 163.254 269.238 162.978 268.99C162.702 268.742 162.512 268.423 162.432 268.075C162.353 267.727 162.387 267.364 162.532 267.034C162.676 266.704 162.923 266.421 163.241 266.222C163.56 266.023 163.935 265.916 164.319 265.916C164.823 265.91 165.308 266.089 165.67 266.414C166.031 266.738 166.239 267.182 166.249 267.649Z" fill="white"/>
<path d="M163.223 268.622C163.364 268.76 163.534 268.87 163.723 268.945C163.912 269.02 164.115 269.058 164.32 269.058C164.521 269.059 164.721 269.024 164.907 268.954C165.094 268.884 165.263 268.781 165.407 268.65C165.55 268.519 165.664 268.363 165.743 268.192C165.821 268.02 165.862 267.836 165.864 267.649C165.857 267.318 165.72 267 165.478 266.755C164.684 267.332 163.93 267.955 163.223 268.622Z" fill="#263238"/>
<path d="M173.761 267.649C173.773 268.005 173.669 268.357 173.464 268.659C173.259 268.96 172.961 269.198 172.609 269.342C172.257 269.486 171.867 269.529 171.488 269.465C171.11 269.402 170.76 269.235 170.485 268.986C170.21 268.737 170.021 268.417 169.943 268.068C169.864 267.719 169.901 267.356 170.047 267.026C170.193 266.696 170.442 266.414 170.762 266.216C171.082 266.019 171.458 265.914 171.843 265.916C172.092 265.913 172.339 265.956 172.57 266.041C172.8 266.127 173.011 266.253 173.189 266.414C173.367 266.575 173.509 266.767 173.607 266.979C173.705 267.191 173.757 267.419 173.761 267.649Z" fill="white"/>
<path d="M170.734 268.622C170.945 268.827 171.217 268.969 171.516 269.03C171.814 269.091 172.125 269.067 172.409 268.963C172.693 268.858 172.937 268.677 173.109 268.443C173.281 268.209 173.374 267.933 173.375 267.649C173.374 267.316 173.236 266.997 172.99 266.755C172.195 267.332 171.442 267.955 170.734 268.622Z" fill="#263238"/>
<path d="M181.276 267.649C181.285 268.002 181.181 268.35 180.976 268.649C180.772 268.947 180.476 269.181 180.126 269.323C179.777 269.464 179.39 269.506 179.015 269.443C178.64 269.379 178.293 269.213 178.02 268.967C177.747 268.72 177.56 268.403 177.482 268.057C177.404 267.711 177.439 267.352 177.583 267.024C177.726 266.697 177.972 266.416 178.288 266.219C178.604 266.022 178.977 265.916 179.358 265.916C179.607 265.913 179.854 265.956 180.085 266.041C180.316 266.127 180.526 266.253 180.704 266.414C180.882 266.575 181.025 266.767 181.123 266.979C181.221 267.191 181.273 267.419 181.276 267.649Z" fill="white"/>
<path d="M178.246 268.622C178.458 268.826 178.731 268.966 179.03 269.026C179.328 269.086 179.639 269.062 179.923 268.958C180.208 268.854 180.452 268.674 180.626 268.441C180.799 268.208 180.895 267.932 180.899 267.649C180.892 267.318 180.755 267 180.513 266.755C179.713 267.329 178.955 267.953 178.246 268.622Z" fill="#263238"/>
<path d="M188.788 267.649C188.797 268.002 188.693 268.35 188.488 268.649C188.283 268.947 187.987 269.181 187.638 269.323C187.288 269.464 186.901 269.506 186.526 269.443C186.151 269.379 185.805 269.213 185.532 268.967C185.259 268.72 185.072 268.403 184.994 268.057C184.916 267.711 184.951 267.352 185.094 267.024C185.238 266.697 185.484 266.416 185.8 266.219C186.116 266.022 186.489 265.916 186.87 265.916C187.119 265.913 187.366 265.956 187.596 266.041C187.827 266.127 188.038 266.253 188.216 266.414C188.394 266.575 188.536 266.767 188.634 266.979C188.732 267.191 188.784 267.419 188.788 267.649Z" fill="white"/>
<path d="M185.727 268.622C185.871 268.759 186.043 268.869 186.234 268.944C186.424 269.018 186.629 269.057 186.836 269.058C187.037 269.059 187.237 269.024 187.423 268.954C187.61 268.884 187.779 268.781 187.923 268.65C188.066 268.519 188.18 268.363 188.259 268.192C188.337 268.02 188.378 267.836 188.38 267.649C188.373 267.318 188.236 267 187.994 266.755C187.196 267.332 186.439 267.955 185.727 268.622Z" fill="#263238"/>
<path d="M196.303 267.649C196.313 268.002 196.209 268.35 196.004 268.649C195.799 268.947 195.503 269.181 195.154 269.323C194.804 269.464 194.417 269.506 194.042 269.443C193.667 269.379 193.321 269.213 193.048 268.967C192.775 268.72 192.587 268.403 192.509 268.057C192.431 267.711 192.466 267.352 192.61 267.024C192.754 266.697 192.999 266.416 193.316 266.219C193.632 266.022 194.004 265.916 194.386 265.916C194.634 265.913 194.881 265.956 195.112 266.041C195.343 266.127 195.554 266.253 195.732 266.414C195.91 266.575 196.052 266.767 196.15 266.979C196.248 267.191 196.3 267.419 196.303 267.649Z" fill="white"/>
<path d="M193.285 268.622C193.426 268.76 193.597 268.87 193.785 268.945C193.974 269.02 194.177 269.058 194.383 269.058C194.584 269.059 194.783 269.024 194.97 268.954C195.156 268.884 195.326 268.781 195.469 268.65C195.613 268.519 195.727 268.363 195.805 268.192C195.884 268.02 195.925 267.836 195.926 267.649C195.919 267.318 195.782 267 195.54 266.755C194.744 267.329 193.99 267.953 193.285 268.622Z" fill="#263238"/>
<path d="M203.815 267.649C203.827 268.005 203.724 268.356 203.52 268.658C203.315 268.959 203.018 269.197 202.667 269.341C202.315 269.485 201.926 269.528 201.548 269.466C201.169 269.403 200.82 269.238 200.544 268.99C200.268 268.742 200.078 268.423 199.999 268.075C199.919 267.727 199.954 267.364 200.098 267.034C200.242 266.704 200.489 266.421 200.808 266.222C201.126 266.023 201.502 265.916 201.886 265.916C202.389 265.91 202.874 266.089 203.236 266.414C203.598 266.738 203.806 267.182 203.815 267.649Z" fill="white"/>
<path d="M200.801 268.622C200.942 268.76 201.112 268.87 201.301 268.945C201.49 269.02 201.693 269.058 201.898 269.058C202.099 269.059 202.299 269.024 202.485 268.954C202.672 268.884 202.841 268.781 202.985 268.65C203.128 268.519 203.242 268.363 203.321 268.192C203.399 268.02 203.44 267.836 203.442 267.649C203.435 267.318 203.298 267 203.056 266.755C202.262 267.332 201.509 267.955 200.801 268.622Z" fill="#263238"/>
<path d="M211.342 267.649C211.352 268.002 211.248 268.35 211.043 268.649C210.838 268.947 210.542 269.181 210.193 269.323C209.843 269.464 209.456 269.506 209.081 269.443C208.706 269.379 208.36 269.213 208.087 268.967C207.814 268.72 207.626 268.403 207.548 268.057C207.47 267.711 207.505 267.352 207.649 267.024C207.793 266.697 208.038 266.416 208.355 266.219C208.671 266.022 209.043 265.916 209.425 265.916C209.673 265.913 209.92 265.956 210.151 266.041C210.382 266.127 210.593 266.253 210.771 266.414C210.949 266.575 211.091 266.767 211.189 266.979C211.287 267.191 211.339 267.419 211.342 267.649Z" fill="white"/>
<path d="M208.312 268.622C208.523 268.827 208.795 268.969 209.094 269.03C209.392 269.091 209.704 269.067 209.988 268.963C210.272 268.858 210.515 268.677 210.687 268.443C210.86 268.209 210.952 267.933 210.954 267.649C210.952 267.316 210.814 266.997 210.568 266.755C209.774 267.332 209.02 267.955 208.312 268.622Z" fill="#263238"/>
<path d="M218.854 267.649C218.864 268.002 218.759 268.35 218.555 268.649C218.35 268.947 218.054 269.181 217.704 269.323C217.355 269.464 216.968 269.506 216.593 269.443C216.218 269.379 215.872 269.213 215.599 268.967C215.326 268.72 215.138 268.403 215.06 268.057C214.982 267.711 215.017 267.352 215.161 267.024C215.304 266.697 215.55 266.416 215.866 266.219C216.183 266.022 216.555 265.916 216.936 265.916C217.185 265.913 217.432 265.956 217.663 266.041C217.894 266.127 218.104 266.253 218.282 266.414C218.46 266.575 218.603 266.767 218.701 266.979C218.799 267.191 218.851 267.419 218.854 267.649Z" fill="white"/>
<path d="M215.875 268.622C216.087 268.826 216.36 268.966 216.659 269.026C216.957 269.086 217.268 269.062 217.552 268.958C217.836 268.854 218.081 268.674 218.255 268.441C218.428 268.208 218.523 267.932 218.528 267.649C218.521 267.318 218.384 267 218.142 266.755C217.344 267.332 216.587 267.955 215.875 268.622Z" fill="#263238"/>
<path d="M226.366 267.649C226.375 268.002 226.271 268.35 226.066 268.649C225.862 268.947 225.565 269.181 225.216 269.323C224.867 269.464 224.48 269.506 224.105 269.443C223.729 269.379 223.383 269.213 223.11 268.967C222.837 268.72 222.65 268.403 222.572 268.057C222.494 267.711 222.529 267.352 222.672 267.024C222.816 266.697 223.062 266.416 223.378 266.219C223.694 266.022 224.067 265.916 224.448 265.916C224.697 265.913 224.944 265.956 225.175 266.041C225.406 266.127 225.616 266.253 225.794 266.414C225.972 266.575 226.114 266.767 226.212 266.979C226.31 267.191 226.363 267.419 226.366 267.649Z" fill="white"/>
<path d="M223.34 268.622C223.484 268.759 223.657 268.869 223.847 268.944C224.038 269.018 224.242 269.057 224.449 269.058C224.65 269.059 224.85 269.024 225.036 268.954C225.223 268.884 225.393 268.781 225.536 268.65C225.679 268.519 225.793 268.363 225.872 268.192C225.95 268.02 225.991 267.836 225.993 267.649C225.986 267.318 225.849 267 225.607 266.755C224.809 267.332 224.052 267.955 223.34 268.622Z" fill="#263238"/>
<path d="M233.881 267.649C233.891 268.002 233.787 268.35 233.582 268.649C233.377 268.947 233.081 269.181 232.732 269.323C232.382 269.464 231.995 269.506 231.62 269.443C231.245 269.379 230.899 269.213 230.626 268.967C230.353 268.72 230.165 268.403 230.087 268.057C230.009 267.711 230.044 267.352 230.188 267.024C230.332 266.697 230.577 266.416 230.894 266.219C231.21 266.022 231.583 265.916 231.964 265.916C232.212 265.913 232.459 265.956 232.69 266.041C232.921 266.127 233.132 266.253 233.31 266.414C233.488 266.575 233.63 266.767 233.728 266.979C233.826 267.191 233.878 267.419 233.881 267.649Z" fill="white"/>
<path d="M230.867 268.622C231.008 268.76 231.179 268.87 231.367 268.945C231.556 269.02 231.759 269.058 231.965 269.058C232.166 269.059 232.365 269.024 232.552 268.954C232.738 268.884 232.908 268.781 233.051 268.65C233.195 268.519 233.309 268.363 233.387 268.192C233.466 268.02 233.507 267.836 233.508 267.649C233.501 267.318 233.364 267 233.122 266.755C232.328 267.332 231.575 267.955 230.867 268.622Z" fill="#263238"/>
<path d="M241.405 267.649C241.417 268.005 241.314 268.357 241.109 268.659C240.904 268.96 240.606 269.198 240.254 269.342C239.902 269.486 239.511 269.529 239.133 269.465C238.754 269.402 238.405 269.235 238.13 268.986C237.854 268.737 237.665 268.417 237.587 268.068C237.509 267.719 237.545 267.356 237.691 267.026C237.837 266.696 238.086 266.414 238.406 266.216C238.726 266.019 239.103 265.914 239.488 265.916C239.736 265.913 239.983 265.956 240.214 266.041C240.445 266.127 240.655 266.253 240.834 266.414C241.012 266.575 241.154 266.767 241.252 266.979C241.35 267.191 241.402 267.419 241.405 267.649Z" fill="white"/>
<path d="M238.379 268.622C238.59 268.827 238.862 268.969 239.16 269.03C239.459 269.091 239.77 269.067 240.054 268.963C240.338 268.858 240.582 268.677 240.754 268.443C240.926 268.209 241.019 267.933 241.02 267.649C241.019 267.316 240.881 266.997 240.634 266.755C239.84 267.332 239.087 267.955 238.379 268.622Z" fill="#263238"/>
<path d="M248.92 267.649C248.93 268.002 248.826 268.35 248.621 268.649C248.416 268.947 248.12 269.181 247.771 269.323C247.421 269.464 247.034 269.506 246.659 269.443C246.284 269.379 245.938 269.213 245.665 268.967C245.392 268.72 245.204 268.403 245.126 268.057C245.048 267.711 245.084 267.352 245.227 267.024C245.371 266.697 245.616 266.416 245.933 266.219C246.249 266.022 246.622 265.916 247.003 265.916C247.252 265.913 247.498 265.956 247.729 266.041C247.96 266.127 248.171 266.253 248.349 266.414C248.527 266.575 248.669 266.767 248.767 266.979C248.865 267.191 248.917 267.419 248.92 267.649Z" fill="white"/>
<path d="M245.891 268.622C246.103 268.826 246.376 268.966 246.674 269.026C246.973 269.086 247.284 269.062 247.568 268.958C247.852 268.854 248.096 268.674 248.27 268.441C248.444 268.208 248.539 267.932 248.544 267.649C248.537 267.318 248.4 267 248.158 266.755C247.357 267.329 246.6 267.953 245.891 268.622Z" fill="#263238"/>
<path d="M256.432 267.649C256.442 268.002 256.337 268.35 256.133 268.649C255.928 268.947 255.632 269.181 255.282 269.323C254.933 269.464 254.546 269.506 254.171 269.443C253.796 269.379 253.45 269.213 253.177 268.967C252.904 268.72 252.716 268.403 252.638 268.057C252.56 267.711 252.595 267.352 252.739 267.024C252.882 266.697 253.128 266.416 253.444 266.219C253.761 266.022 254.133 265.916 254.515 265.916C254.763 265.913 255.01 265.956 255.241 266.041C255.472 266.127 255.682 266.253 255.861 266.414C256.039 266.575 256.181 266.767 256.279 266.979C256.377 267.191 256.429 267.419 256.432 267.649Z" fill="white"/>
<path d="M253.406 268.622C253.551 268.759 253.723 268.869 253.914 268.944C254.104 269.018 254.309 269.057 254.516 269.058C254.717 269.059 254.916 269.024 255.103 268.954C255.289 268.884 255.459 268.781 255.602 268.65C255.746 268.519 255.86 268.363 255.938 268.192C256.017 268.02 256.058 267.836 256.059 267.649C256.052 267.318 255.915 267 255.674 266.755C254.876 267.332 254.118 267.955 253.406 268.622Z" fill="#263238"/>
<path d="M339.706 256.569C339.713 256.922 339.607 257.269 339.4 257.566C339.194 257.863 338.897 258.096 338.548 258.235C338.198 258.375 337.811 258.415 337.437 258.35C337.063 258.286 336.718 258.119 336.446 257.872C336.174 257.625 335.988 257.308 335.911 256.962C335.834 256.617 335.87 256.257 336.014 255.931C336.158 255.604 336.403 255.324 336.719 255.127C337.035 254.931 337.408 254.825 337.788 254.825C338.038 254.822 338.286 254.865 338.517 254.951C338.749 255.038 338.96 255.165 339.138 255.328C339.317 255.49 339.459 255.683 339.556 255.896C339.653 256.109 339.704 256.338 339.706 256.569Z" fill="white"/>
<path d="M336.691 257.531C336.901 257.736 337.172 257.878 337.47 257.939C337.767 258 338.077 257.977 338.361 257.874C338.644 257.771 338.888 257.592 339.061 257.359C339.234 257.127 339.329 256.852 339.333 256.57C339.328 256.234 339.191 255.912 338.947 255.664C338.152 256.241 337.399 256.865 336.691 257.531Z" fill="#263238"/>
<path d="M347.234 256.569C347.243 256.925 347.138 257.276 346.931 257.576C346.725 257.877 346.426 258.113 346.074 258.255C345.721 258.397 345.331 258.438 344.954 258.373C344.576 258.308 344.227 258.14 343.953 257.891C343.679 257.642 343.491 257.322 343.414 256.973C343.337 256.624 343.374 256.262 343.521 255.933C343.667 255.603 343.916 255.322 344.236 255.125C344.556 254.927 344.932 254.823 345.316 254.825C345.566 254.822 345.814 254.865 346.045 254.951C346.277 255.038 346.488 255.165 346.666 255.328C346.844 255.49 346.986 255.683 347.084 255.896C347.181 256.109 347.232 256.338 347.234 256.569Z" fill="white"/>
<path d="M344.207 257.531C344.417 257.736 344.688 257.878 344.985 257.939C345.283 258 345.593 257.977 345.877 257.874C346.16 257.771 346.404 257.592 346.577 257.359C346.75 257.127 346.844 256.852 346.848 256.57C346.849 256.233 346.711 255.909 346.462 255.664C345.668 256.241 344.915 256.865 344.207 257.531Z" fill="#263238"/>
<path d="M354.745 256.569C354.752 256.922 354.646 257.269 354.439 257.566C354.233 257.863 353.936 258.096 353.587 258.235C353.237 258.375 352.85 258.415 352.476 258.35C352.102 258.286 351.757 258.119 351.485 257.872C351.213 257.625 351.027 257.308 350.95 256.962C350.873 256.617 350.909 256.257 351.053 255.931C351.197 255.604 351.442 255.324 351.758 255.127C352.074 254.931 352.447 254.825 352.827 254.825C353.077 254.822 353.325 254.865 353.557 254.951C353.788 255.038 353.999 255.165 354.178 255.328C354.356 255.49 354.498 255.683 354.595 255.896C354.692 256.109 354.743 256.338 354.745 256.569Z" fill="white"/>
<path d="M351.719 257.531C351.93 257.734 352.202 257.875 352.5 257.935C352.797 257.995 353.107 257.972 353.391 257.869C353.674 257.767 353.919 257.588 354.093 257.357C354.268 257.126 354.365 256.852 354.372 256.57C354.368 256.234 354.23 255.912 353.986 255.664C353.186 256.238 352.428 256.862 351.719 257.531Z" fill="#263238"/>
<path d="M362.261 256.569C362.268 256.922 362.161 257.269 361.955 257.566C361.749 257.863 361.452 258.096 361.102 258.235C360.753 258.375 360.366 258.415 359.992 258.35C359.617 258.286 359.272 258.119 359 257.872C358.729 257.625 358.542 257.308 358.465 256.962C358.388 256.617 358.424 256.257 358.568 255.931C358.712 255.604 358.958 255.324 359.274 255.127C359.59 254.931 359.962 254.825 360.343 254.825C360.593 254.822 360.84 254.865 361.072 254.951C361.304 255.038 361.515 255.165 361.693 255.328C361.871 255.49 362.013 255.683 362.111 255.896C362.208 256.109 362.259 256.338 362.261 256.569Z" fill="white"/>
<path d="M359.23 257.531C359.375 257.669 359.547 257.778 359.738 257.853C359.928 257.928 360.133 257.967 360.34 257.967C360.541 257.97 360.74 257.936 360.926 257.867C361.112 257.799 361.282 257.696 361.426 257.566C361.569 257.437 361.684 257.282 361.762 257.111C361.841 256.939 361.882 256.756 361.884 256.57C361.88 256.234 361.742 255.912 361.498 255.664C360.7 256.241 359.943 256.865 359.23 257.531Z" fill="#263238"/>
<path d="M369.772 256.569C369.779 256.922 369.673 257.269 369.467 257.566C369.261 257.863 368.964 258.096 368.614 258.235C368.264 258.375 367.878 258.415 367.503 258.35C367.129 258.286 366.784 258.119 366.512 257.872C366.24 257.625 366.054 257.308 365.977 256.962C365.9 256.617 365.936 256.257 366.08 255.931C366.224 255.604 366.47 255.324 366.786 255.127C367.102 254.931 367.474 254.825 367.855 254.825C368.104 254.822 368.352 254.865 368.584 254.951C368.816 255.038 369.027 255.165 369.205 255.328C369.383 255.49 369.525 255.683 369.622 255.896C369.72 256.109 369.771 256.338 369.772 256.569Z" fill="white"/>
<path d="M366.758 257.531C366.968 257.736 367.239 257.878 367.536 257.939C367.834 258 368.144 257.977 368.427 257.874C368.711 257.771 368.955 257.592 369.128 257.359C369.301 257.127 369.395 256.852 369.399 256.57C369.395 256.234 369.258 255.912 369.013 255.664C368.216 256.238 367.463 256.862 366.758 257.531Z" fill="#263238"/>
<path d="M377.296 256.569C377.306 256.925 377.201 257.275 376.995 257.575C376.789 257.875 376.491 258.111 376.139 258.254C375.787 258.396 375.398 258.438 375.021 258.374C374.643 258.31 374.295 258.143 374.02 257.895C373.745 257.647 373.557 257.328 373.478 256.98C373.4 256.632 373.435 256.27 373.58 255.94C373.724 255.611 373.971 255.329 374.29 255.13C374.608 254.932 374.983 254.825 375.367 254.825C375.617 254.822 375.865 254.865 376.098 254.951C376.33 255.037 376.542 255.165 376.721 255.327C376.9 255.489 377.043 255.682 377.142 255.895C377.241 256.108 377.293 256.337 377.296 256.569Z" fill="white"/>
<path d="M374.27 257.531C374.479 257.736 374.75 257.878 375.048 257.939C375.345 258 375.655 257.977 375.939 257.874C376.223 257.771 376.466 257.592 376.639 257.359C376.813 257.127 376.907 256.852 376.911 256.57C376.907 256.234 376.769 255.912 376.525 255.664C375.731 256.241 374.977 256.865 374.27 257.531Z" fill="#263238"/>
<path d="M384.812 256.569C384.821 256.925 384.716 257.276 384.509 257.576C384.303 257.877 384.004 258.113 383.652 258.255C383.299 258.397 382.909 258.438 382.532 258.373C382.154 258.308 381.806 258.14 381.531 257.891C381.257 257.642 381.069 257.322 380.992 256.973C380.915 256.624 380.952 256.262 381.099 255.933C381.245 255.603 381.494 255.322 381.814 255.125C382.134 254.927 382.51 254.823 382.894 254.825C383.144 254.822 383.392 254.865 383.623 254.951C383.855 255.038 384.066 255.165 384.244 255.328C384.423 255.49 384.564 255.683 384.662 255.896C384.759 256.109 384.81 256.338 384.812 256.569Z" fill="white"/>
<path d="M381.785 257.531C381.995 257.736 382.266 257.878 382.563 257.939C382.861 258 383.171 257.977 383.455 257.874C383.738 257.771 383.982 257.592 384.155 257.359C384.328 257.127 384.423 256.852 384.426 256.57C384.427 256.233 384.289 255.909 384.04 255.664C383.246 256.241 382.493 256.865 381.785 257.531Z" fill="#263238"/>
<path d="M392.323 256.569C392.33 256.922 392.224 257.269 392.018 257.566C391.811 257.863 391.514 258.096 391.165 258.235C390.815 258.375 390.428 258.415 390.054 258.35C389.68 258.286 389.335 258.119 389.063 257.872C388.791 257.625 388.605 257.308 388.528 256.962C388.451 256.617 388.487 256.257 388.631 255.931C388.775 255.604 389.02 255.324 389.336 255.127C389.653 254.931 390.025 254.825 390.405 254.825C390.655 254.822 390.903 254.865 391.135 254.951C391.366 255.038 391.577 255.165 391.756 255.328C391.934 255.49 392.076 255.683 392.173 255.896C392.271 256.109 392.321 256.338 392.323 256.569Z" fill="white"/>
<path d="M389.297 257.531C389.509 257.734 389.78 257.875 390.078 257.935C390.375 257.995 390.685 257.972 390.969 257.869C391.252 257.767 391.497 257.588 391.672 257.357C391.846 257.126 391.943 256.852 391.95 256.57C391.946 256.234 391.809 255.912 391.564 255.664C390.764 256.238 390.006 256.862 389.297 257.531Z" fill="#263238"/>
<path d="M399.839 256.569C399.846 256.922 399.74 257.269 399.533 257.566C399.327 257.863 399.03 258.096 398.68 258.235C398.331 258.375 397.944 258.415 397.57 258.35C397.195 258.286 396.85 258.119 396.579 257.872C396.307 257.625 396.12 257.308 396.043 256.962C395.967 256.617 396.002 256.257 396.146 255.931C396.29 255.604 396.536 255.324 396.852 255.127C397.168 254.931 397.54 254.825 397.921 254.825C398.171 254.822 398.419 254.865 398.65 254.951C398.882 255.038 399.093 255.165 399.271 255.328C399.45 255.49 399.591 255.683 399.689 255.896C399.786 256.109 399.837 256.338 399.839 256.569Z" fill="white"/>
<path d="M396.773 257.531C396.918 257.669 397.09 257.778 397.281 257.853C397.471 257.928 397.676 257.967 397.883 257.967C398.084 257.97 398.283 257.936 398.469 257.867C398.655 257.799 398.825 257.696 398.969 257.566C399.112 257.437 399.227 257.282 399.305 257.111C399.384 256.939 399.425 256.756 399.427 256.57C399.423 256.234 399.285 255.912 399.041 255.664C398.243 256.241 397.485 256.865 396.773 257.531Z" fill="#263238"/>
<path d="M407.35 256.569C407.358 256.922 407.251 257.269 407.045 257.566C406.839 257.863 406.542 258.096 406.192 258.235C405.842 258.375 405.456 258.415 405.081 258.35C404.707 258.286 404.362 258.119 404.09 257.872C403.818 257.625 403.632 257.308 403.555 256.962C403.478 256.617 403.514 256.257 403.658 255.931C403.802 255.604 404.048 255.324 404.364 255.127C404.68 254.931 405.052 254.825 405.433 254.825C405.682 254.822 405.93 254.865 406.162 254.951C406.394 255.038 406.605 255.165 406.783 255.328C406.961 255.49 407.103 255.683 407.2 255.896C407.298 256.109 407.349 256.338 407.35 256.569Z" fill="white"/>
<path d="M404.336 257.531C404.546 257.736 404.817 257.878 405.114 257.939C405.412 258 405.722 257.977 406.005 257.874C406.289 257.771 406.533 257.592 406.706 257.359C406.879 257.127 406.973 256.852 406.977 256.57C406.973 256.234 406.836 255.912 406.591 255.664C405.794 256.238 405.041 256.862 404.336 257.531Z" fill="#263238"/>
<path d="M414.866 256.569C414.876 256.925 414.771 257.275 414.565 257.575C414.359 257.875 414.061 258.111 413.709 258.254C413.358 258.396 412.968 258.438 412.591 258.374C412.213 258.31 411.865 258.143 411.59 257.895C411.316 257.647 411.127 257.328 411.049 256.98C410.97 256.632 411.005 256.27 411.15 255.94C411.294 255.611 411.542 255.329 411.86 255.13C412.178 254.932 412.553 254.825 412.937 254.825C413.187 254.822 413.435 254.865 413.668 254.951C413.9 255.037 414.112 255.165 414.291 255.327C414.47 255.489 414.613 255.682 414.712 255.895C414.811 256.108 414.863 256.337 414.866 256.569Z" fill="white"/>
<path d="M411.852 257.531C412.062 257.736 412.332 257.878 412.63 257.939C412.927 258 413.238 257.977 413.521 257.874C413.805 257.771 414.048 257.592 414.221 257.359C414.395 257.127 414.489 256.852 414.493 256.57C414.489 256.234 414.351 255.912 414.107 255.664C413.313 256.241 412.559 256.865 411.852 257.531Z" fill="#263238"/>
<path d="M422.389 256.569C422.397 256.922 422.29 257.269 422.084 257.566C421.878 257.863 421.581 258.096 421.231 258.235C420.881 258.375 420.495 258.415 420.12 258.35C419.746 258.286 419.401 258.119 419.129 257.872C418.857 257.625 418.671 257.308 418.594 256.962C418.517 256.617 418.553 256.257 418.697 255.931C418.841 255.604 419.087 255.324 419.403 255.127C419.719 254.931 420.091 254.825 420.472 254.825C420.722 254.822 420.969 254.865 421.201 254.951C421.433 255.038 421.644 255.165 421.822 255.328C422 255.49 422.142 255.683 422.24 255.896C422.337 256.109 422.388 256.338 422.389 256.569Z" fill="white"/>
<path d="M419.363 257.531C419.507 257.669 419.68 257.779 419.87 257.854C420.061 257.929 420.266 257.967 420.473 257.967C420.672 257.969 420.87 257.934 421.055 257.864C421.24 257.795 421.409 257.692 421.551 257.562C421.693 257.433 421.806 257.278 421.884 257.108C421.962 256.938 422.003 256.755 422.004 256.57C422.005 256.233 421.867 255.909 421.618 255.664C420.824 256.241 420.071 256.865 419.363 257.531Z" fill="#263238"/>
<path d="M429.905 256.569C429.912 256.922 429.806 257.269 429.6 257.566C429.393 257.863 429.096 258.096 428.747 258.235C428.397 258.375 428.01 258.415 427.636 258.35C427.262 258.286 426.917 258.119 426.645 257.872C426.373 257.625 426.187 257.308 426.11 256.962C426.033 256.617 426.069 256.257 426.213 255.931C426.357 255.604 426.602 255.324 426.919 255.127C427.235 254.931 427.607 254.825 427.988 254.825C428.237 254.822 428.485 254.865 428.717 254.951C428.948 255.038 429.16 255.165 429.338 255.328C429.516 255.49 429.658 255.683 429.755 255.896C429.853 256.109 429.903 256.338 429.905 256.569Z" fill="white"/>
<path d="M426.926 257.531C427.137 257.734 427.409 257.875 427.707 257.935C428.004 257.995 428.314 257.972 428.598 257.869C428.881 257.767 429.126 257.588 429.3 257.357C429.475 257.126 429.572 256.852 429.579 256.57C429.575 256.234 429.438 255.912 429.193 255.664C428.395 256.241 427.638 256.865 426.926 257.531Z" fill="#263238"/>
<path d="M437.417 256.569C437.424 256.922 437.318 257.269 437.111 257.566C436.905 257.863 436.608 258.096 436.258 258.235C435.909 258.375 435.522 258.415 435.148 258.35C434.773 258.286 434.428 258.119 434.157 257.872C433.885 257.625 433.699 257.308 433.622 256.962C433.545 256.617 433.58 256.257 433.724 255.931C433.868 255.604 434.114 255.324 434.43 255.127C434.746 254.931 435.118 254.825 435.499 254.825C435.749 254.822 435.997 254.865 436.228 254.951C436.46 255.038 436.671 255.165 436.849 255.328C437.028 255.49 437.17 255.683 437.267 255.896C437.364 256.109 437.415 256.338 437.417 256.569Z" fill="white"/>
<path d="M434.391 257.531C434.535 257.669 434.707 257.778 434.898 257.853C435.089 257.928 435.293 257.967 435.5 257.967C435.701 257.97 435.9 257.936 436.086 257.867C436.273 257.799 436.442 257.696 436.586 257.566C436.73 257.437 436.844 257.282 436.922 257.111C437.001 256.939 437.042 256.756 437.044 256.57C437.04 256.234 436.902 255.912 436.658 255.664C435.86 256.241 435.103 256.865 434.391 257.531Z" fill="#263238"/>
<path d="M339.706 267.649C339.715 268.002 339.611 268.35 339.406 268.649C339.201 268.947 338.905 269.181 338.556 269.323C338.206 269.464 337.819 269.506 337.444 269.443C337.069 269.379 336.723 269.213 336.45 268.967C336.177 268.72 335.99 268.403 335.912 268.057C335.834 267.711 335.869 267.352 336.012 267.024C336.156 266.697 336.402 266.416 336.718 266.219C337.034 266.022 337.407 265.916 337.788 265.916C338.037 265.913 338.284 265.956 338.514 266.041C338.745 266.127 338.956 266.253 339.134 266.414C339.312 266.575 339.454 266.767 339.552 266.979C339.65 267.191 339.702 267.419 339.706 267.649Z" fill="white"/>
<path d="M336.691 268.622C336.833 268.76 337.003 268.87 337.192 268.945C337.38 269.02 337.584 269.058 337.789 269.058C337.99 269.059 338.19 269.024 338.376 268.954C338.562 268.884 338.732 268.781 338.875 268.65C339.019 268.519 339.133 268.363 339.211 268.192C339.29 268.02 339.331 267.836 339.333 267.649C339.326 267.318 339.188 267 338.947 266.755C338.152 267.332 337.399 267.955 336.691 268.622Z" fill="#263238"/>
<path d="M347.233 267.649C347.245 268.005 347.142 268.357 346.937 268.659C346.732 268.96 346.434 269.198 346.082 269.342C345.73 269.486 345.34 269.529 344.961 269.465C344.583 269.402 344.233 269.235 343.958 268.986C343.682 268.737 343.493 268.417 343.415 268.068C343.337 267.719 343.373 267.356 343.519 267.026C343.665 266.696 343.914 266.414 344.234 266.216C344.554 266.019 344.931 265.914 345.316 265.916C345.564 265.913 345.811 265.956 346.042 266.041C346.273 266.127 346.484 266.253 346.662 266.414C346.84 266.575 346.982 266.767 347.08 266.979C347.178 267.191 347.23 267.419 347.233 267.649Z" fill="white"/>
<path d="M344.207 268.622C344.418 268.827 344.69 268.969 344.988 269.03C345.287 269.091 345.598 269.067 345.882 268.963C346.166 268.858 346.41 268.677 346.582 268.443C346.754 268.209 346.847 267.933 346.848 267.649C346.847 267.316 346.709 266.997 346.462 266.755C345.668 267.332 344.915 267.955 344.207 268.622Z" fill="#263238"/>
<path d="M354.745 267.649C354.754 268.002 354.65 268.35 354.445 268.649C354.24 268.947 353.944 269.181 353.595 269.323C353.246 269.464 352.859 269.506 352.483 269.443C352.108 269.379 351.762 269.213 351.489 268.967C351.216 268.72 351.029 268.403 350.951 268.057C350.873 267.711 350.908 267.352 351.051 267.024C351.195 266.697 351.441 266.416 351.757 266.219C352.073 266.022 352.446 265.916 352.827 265.916C353.076 265.913 353.323 265.956 353.554 266.041C353.784 266.127 353.995 266.253 354.173 266.414C354.351 266.575 354.493 266.767 354.591 266.979C354.689 267.191 354.741 267.419 354.745 267.649Z" fill="white"/>
<path d="M351.719 268.622C351.931 268.826 352.204 268.966 352.502 269.026C352.801 269.086 353.112 269.062 353.396 268.958C353.68 268.854 353.925 268.674 354.098 268.441C354.272 268.208 354.367 267.932 354.372 267.649C354.365 267.318 354.228 267 353.986 266.755C353.186 267.329 352.428 267.953 351.719 268.622Z" fill="#263238"/>
<path d="M362.26 267.649C362.27 268.002 362.166 268.35 361.961 268.649C361.756 268.947 361.46 269.181 361.111 269.323C360.761 269.464 360.374 269.506 359.999 269.443C359.624 269.379 359.278 269.213 359.005 268.967C358.732 268.72 358.544 268.403 358.466 268.057C358.388 267.711 358.423 267.352 358.567 267.024C358.711 266.697 358.956 266.416 359.273 266.219C359.589 266.022 359.961 265.916 360.343 265.916C360.591 265.913 360.838 265.956 361.069 266.041C361.3 266.127 361.511 266.253 361.689 266.414C361.867 266.575 362.009 266.767 362.107 266.979C362.205 267.191 362.257 267.419 362.26 267.649Z" fill="white"/>
<path d="M359.23 268.622C359.375 268.759 359.547 268.869 359.738 268.944C359.928 269.018 360.133 269.057 360.34 269.058C360.541 269.059 360.741 269.024 360.927 268.954C361.113 268.884 361.283 268.781 361.427 268.65C361.57 268.519 361.684 268.363 361.762 268.192C361.841 268.02 361.882 267.836 361.884 267.649C361.877 267.318 361.739 267 361.498 266.755C360.7 267.332 359.943 267.955 359.23 268.622Z" fill="#263238"/>
<path d="M369.772 267.649C369.782 268.002 369.677 268.35 369.473 268.649C369.268 268.947 368.972 269.181 368.622 269.323C368.273 269.464 367.886 269.506 367.511 269.443C367.136 269.379 366.79 269.213 366.517 268.967C366.243 268.72 366.056 268.403 365.978 268.057C365.9 267.711 365.935 267.352 366.079 267.024C366.222 266.697 366.468 266.416 366.784 266.219C367.101 266.022 367.473 265.916 367.854 265.916C368.103 265.913 368.35 265.956 368.581 266.041C368.812 266.127 369.022 266.253 369.2 266.414C369.378 266.575 369.521 266.767 369.619 266.979C369.717 267.191 369.769 267.419 369.772 267.649Z" fill="white"/>
<path d="M366.758 268.622C366.899 268.76 367.069 268.87 367.258 268.945C367.447 269.02 367.65 269.058 367.855 269.058C368.056 269.059 368.256 269.024 368.442 268.954C368.629 268.884 368.799 268.781 368.942 268.65C369.085 268.519 369.199 268.363 369.278 268.192C369.356 268.02 369.397 267.836 369.399 267.649C369.392 267.318 369.255 267 369.013 266.755C368.216 267.329 367.463 267.953 366.758 268.622Z" fill="#263238"/>
<path d="M377.3 267.649C377.312 268.005 377.209 268.356 377.004 268.658C376.8 268.959 376.503 269.197 376.151 269.341C375.8 269.485 375.41 269.528 375.032 269.466C374.654 269.403 374.304 269.238 374.028 268.99C373.752 268.742 373.563 268.423 373.483 268.075C373.404 267.727 373.438 267.364 373.582 267.034C373.726 266.704 373.974 266.421 374.292 266.222C374.611 266.023 374.986 265.916 375.37 265.916C375.873 265.91 376.359 266.089 376.72 266.414C377.082 266.738 377.29 267.182 377.3 267.649Z" fill="white"/>
<path d="M374.27 268.622C374.411 268.76 374.581 268.87 374.77 268.945C374.958 269.02 375.162 269.058 375.367 269.058C375.568 269.059 375.768 269.024 375.954 268.954C376.14 268.884 376.31 268.781 376.454 268.65C376.597 268.519 376.711 268.363 376.789 268.192C376.868 268.02 376.909 267.836 376.911 267.649C376.904 267.318 376.766 267 376.525 266.755C375.731 267.332 374.977 267.955 374.27 268.622Z" fill="#263238"/>
<path d="M384.811 267.649C384.823 268.005 384.72 268.357 384.515 268.659C384.31 268.96 384.012 269.198 383.66 269.342C383.308 269.486 382.918 269.529 382.539 269.465C382.161 269.402 381.811 269.235 381.536 268.986C381.26 268.737 381.071 268.417 380.993 268.068C380.915 267.719 380.951 267.356 381.097 267.026C381.243 266.696 381.492 266.414 381.813 266.216C382.133 266.019 382.509 265.914 382.894 265.916C383.142 265.913 383.389 265.956 383.62 266.041C383.851 266.127 384.062 266.253 384.24 266.414C384.418 266.575 384.56 266.767 384.658 266.979C384.756 267.191 384.808 267.419 384.811 267.649Z" fill="white"/>
<path d="M381.785 268.622C381.996 268.827 382.268 268.969 382.566 269.03C382.865 269.091 383.176 269.067 383.46 268.963C383.744 268.858 383.988 268.677 384.16 268.443C384.332 268.209 384.425 267.933 384.426 267.649C384.425 267.316 384.287 266.997 384.04 266.755C383.246 267.332 382.493 267.955 381.785 268.622Z" fill="#263238"/>
<path d="M392.327 267.649C392.336 268.002 392.232 268.35 392.027 268.649C391.822 268.947 391.526 269.181 391.177 269.323C390.828 269.464 390.441 269.506 390.065 269.443C389.69 269.379 389.344 269.213 389.071 268.967C388.798 268.72 388.611 268.403 388.533 268.057C388.455 267.711 388.49 267.352 388.633 267.024C388.777 266.697 389.023 266.416 389.339 266.219C389.655 266.022 390.028 265.916 390.409 265.916C390.658 265.913 390.905 265.956 391.136 266.041C391.366 266.127 391.577 266.253 391.755 266.414C391.933 266.575 392.075 266.767 392.173 266.979C392.271 267.191 392.324 267.419 392.327 267.649Z" fill="white"/>
<path d="M389.297 268.622C389.509 268.826 389.782 268.966 390.081 269.026C390.379 269.086 390.69 269.062 390.974 268.958C391.258 268.854 391.503 268.674 391.676 268.441C391.85 268.208 391.945 267.932 391.95 267.649C391.943 267.318 391.806 267 391.564 266.755C390.764 267.329 390.006 267.953 389.297 268.622Z" fill="#263238"/>
<path d="M399.838 267.649C399.848 268.002 399.744 268.35 399.539 268.649C399.334 268.947 399.038 269.181 398.689 269.323C398.339 269.464 397.952 269.506 397.577 269.443C397.202 269.379 396.856 269.213 396.583 268.967C396.31 268.72 396.122 268.403 396.044 268.057C395.966 267.711 396.002 267.352 396.145 267.024C396.289 266.697 396.534 266.416 396.851 266.219C397.167 266.022 397.54 265.916 397.921 265.916C398.17 265.913 398.416 265.956 398.647 266.041C398.878 266.127 399.089 266.253 399.267 266.414C399.445 266.575 399.587 266.767 399.685 266.979C399.783 267.191 399.835 267.419 399.838 267.649Z" fill="white"/>
<path d="M396.773 268.622C396.918 268.759 397.09 268.869 397.281 268.944C397.471 269.018 397.676 269.057 397.883 269.058C398.084 269.059 398.284 269.024 398.47 268.954C398.656 268.884 398.826 268.781 398.97 268.65C399.113 268.519 399.227 268.363 399.305 268.192C399.384 268.02 399.425 267.836 399.427 267.649C399.42 267.318 399.282 267 399.041 266.755C398.243 267.332 397.485 267.955 396.773 268.622Z" fill="#263238"/>
<path d="M407.35 267.649C407.36 268.002 407.255 268.35 407.051 268.649C406.846 268.947 406.55 269.181 406.2 269.323C405.851 269.464 405.464 269.506 405.089 269.443C404.714 269.379 404.368 269.213 404.095 268.967C403.822 268.72 403.634 268.403 403.556 268.057C403.478 267.711 403.513 267.352 403.657 267.024C403.8 266.697 404.046 266.416 404.362 266.219C404.679 266.022 405.051 265.916 405.433 265.916C405.681 265.913 405.928 265.956 406.159 266.041C406.39 266.127 406.6 266.253 406.779 266.414C406.957 266.575 407.099 266.767 407.197 266.979C407.295 267.191 407.347 267.419 407.35 267.649Z" fill="white"/>
<path d="M404.336 268.622C404.477 268.76 404.647 268.87 404.836 268.945C405.025 269.02 405.228 269.058 405.433 269.058C405.635 269.059 405.834 269.024 406.02 268.954C406.207 268.884 406.377 268.781 406.52 268.65C406.663 268.519 406.777 268.363 406.856 268.192C406.934 268.02 406.976 267.836 406.977 267.649C406.97 267.318 406.833 267 406.591 266.755C405.794 267.329 405.041 267.953 404.336 268.622Z" fill="#263238"/>
<path d="M414.866 267.649C414.878 268.005 414.775 268.356 414.571 268.658C414.366 268.959 414.069 269.197 413.718 269.341C413.366 269.485 412.977 269.528 412.598 269.466C412.22 269.403 411.871 269.238 411.595 268.99C411.319 268.742 411.129 268.423 411.05 268.075C410.97 267.727 411.005 267.364 411.149 267.034C411.293 266.704 411.54 266.421 411.858 266.222C412.177 266.023 412.552 265.916 412.936 265.916C413.44 265.91 413.925 266.089 414.287 266.414C414.648 266.738 414.857 267.182 414.866 267.649Z" fill="white"/>
<path d="M411.852 268.622C411.993 268.76 412.163 268.87 412.352 268.945C412.54 269.02 412.744 269.058 412.949 269.058C413.15 269.059 413.35 269.024 413.536 268.954C413.723 268.884 413.892 268.781 414.036 268.65C414.179 268.519 414.293 268.363 414.372 268.192C414.45 268.02 414.491 267.836 414.493 267.649C414.486 267.318 414.348 267 414.107 266.755C413.313 267.332 412.559 267.955 411.852 268.622Z" fill="#263238"/>
<path d="M422.389 267.649C422.399 268.002 422.295 268.35 422.09 268.649C421.885 268.947 421.589 269.181 421.239 269.323C420.89 269.464 420.503 269.506 420.128 269.443C419.753 269.379 419.407 269.213 419.134 268.967C418.861 268.72 418.673 268.403 418.595 268.057C418.517 267.711 418.552 267.352 418.696 267.024C418.839 266.697 419.085 266.416 419.401 266.219C419.718 266.022 420.09 265.916 420.472 265.916C420.72 265.913 420.967 265.956 421.198 266.041C421.429 266.127 421.64 266.253 421.818 266.414C421.996 266.575 422.138 266.767 422.236 266.979C422.334 267.191 422.386 267.419 422.389 267.649Z" fill="white"/>
<path d="M419.363 268.622C419.574 268.827 419.846 268.969 420.144 269.03C420.443 269.091 420.754 269.067 421.038 268.963C421.322 268.858 421.566 268.677 421.738 268.443C421.91 268.209 422.003 267.933 422.004 267.649C422.003 267.316 421.865 266.997 421.618 266.755C420.824 267.332 420.071 267.955 419.363 268.622Z" fill="#263238"/>
<path d="M429.905 267.649C429.914 268.002 429.81 268.35 429.605 268.649C429.401 268.947 429.105 269.181 428.755 269.323C428.406 269.464 428.019 269.506 427.644 269.443C427.269 269.379 426.922 269.213 426.649 268.967C426.376 268.72 426.189 268.403 426.111 268.057C426.033 267.711 426.068 267.352 426.212 267.024C426.355 266.697 426.601 266.416 426.917 266.219C427.233 266.022 427.606 265.916 427.987 265.916C428.236 265.913 428.483 265.956 428.714 266.041C428.945 266.127 429.155 266.253 429.333 266.414C429.511 266.575 429.653 266.767 429.751 266.979C429.85 267.191 429.902 267.419 429.905 267.649Z" fill="white"/>
<path d="M426.926 268.622C427.138 268.826 427.411 268.966 427.709 269.026C428.008 269.086 428.319 269.062 428.603 268.958C428.887 268.854 429.132 268.674 429.305 268.441C429.479 268.208 429.574 267.932 429.579 267.649C429.572 267.318 429.435 267 429.193 266.755C428.395 267.332 427.638 267.955 426.926 268.622Z" fill="#263238"/>
<path d="M437.417 267.649C437.426 268.002 437.322 268.35 437.117 268.649C436.912 268.947 436.616 269.181 436.267 269.323C435.917 269.464 435.53 269.506 435.155 269.443C434.78 269.379 434.434 269.213 434.161 268.967C433.888 268.72 433.701 268.403 433.623 268.057C433.545 267.711 433.58 267.352 433.723 267.024C433.867 266.697 434.112 266.416 434.429 266.219C434.745 266.022 435.118 265.916 435.499 265.916C435.748 265.913 435.994 265.956 436.225 266.041C436.456 266.127 436.667 266.253 436.845 266.414C437.023 266.575 437.165 266.767 437.263 266.979C437.361 267.191 437.413 267.419 437.417 267.649Z" fill="white"/>
<path d="M434.391 268.622C434.535 268.759 434.707 268.869 434.898 268.944C435.089 269.018 435.293 269.057 435.5 269.058C435.701 269.059 435.901 269.024 436.087 268.954C436.274 268.884 436.443 268.781 436.587 268.65C436.73 268.519 436.844 268.363 436.923 268.192C437.001 268.02 437.042 267.836 437.044 267.649C437.037 267.318 436.9 267 436.658 266.755C435.86 267.332 435.103 267.955 434.391 268.622Z" fill="#263238"/>
<path d="M326.114 247.972H267.972C266.71 247.972 265.497 247.514 264.595 246.694C263.693 245.875 263.174 244.76 263.148 243.59V218.725C263.148 201.765 278.356 187.958 297.049 187.958C315.742 187.958 330.962 201.765 330.962 218.725V243.59C330.936 244.764 330.414 245.882 329.507 246.702C328.6 247.522 327.381 247.978 326.114 247.972ZM272.796 239.252H321.278V218.725C321.278 212.765 318.724 207.05 314.178 202.835C309.632 198.621 303.466 196.254 297.037 196.254C290.608 196.254 284.442 198.621 279.896 202.835C275.35 207.05 272.796 212.765 272.796 218.725V239.252Z" fill="white" stroke="#263238" stroke-linecap="round" stroke-linejoin="round"/>
<path d="M333.567 235.987H259.543V292.759H333.567V235.987Z" fill="#B7D3FF" stroke="#263238" stroke-linecap="round" stroke-linejoin="round"/>
<path d="M304.261 259.566C304.18 257.634 303.296 255.806 301.793 254.465C300.289 253.125 298.285 252.376 296.199 252.376C294.113 252.376 292.108 253.125 290.605 254.465C289.102 255.806 288.217 257.634 288.137 259.566C288.143 260.895 288.541 262.197 289.287 263.332C290.033 264.467 291.099 265.391 292.37 266.006L291.019 278.897H301.379L300.028 266.006C301.299 265.391 302.365 264.467 303.111 263.332C303.857 262.197 304.254 260.895 304.261 259.566Z" fill="#263238" stroke="#263238" stroke-linecap="round" stroke-linejoin="round"/>
<path d="M463.707 488.567C495.345 488.567 520.992 483.311 520.992 476.828C520.992 470.345 495.345 465.089 463.707 465.089C432.069 465.089 406.422 470.345 406.422 476.828C406.422 483.311 432.069 488.567 463.707 488.567Z" fill="#B7D3FF"/>
<path opacity="0.5" d="M463.707 488.567C495.345 488.567 520.992 483.311 520.992 476.828C520.992 470.345 495.345 465.089 463.707 465.089C432.069 465.089 406.422 470.345 406.422 476.828C406.422 483.311 432.069 488.567 463.707 488.567Z" fill="white"/>
<path d="M433.749 464.82C433.749 464.82 419.855 472.065 419.855 475.553C419.855 479.041 428.43 476.895 434.038 474.435C439.646 471.975 444.096 470.142 444.096 465.312C444.096 460.482 433.749 464.82 433.749 464.82Z" fill="#B7D3FF" stroke="#263238" stroke-miterlimit="10"/>
<path d="M500.262 464.82C500.262 464.82 514.155 472.065 514.155 475.553C514.155 479.041 505.58 476.895 499.972 474.435C494.364 471.975 489.914 470.142 489.914 465.312C489.914 460.482 500.262 464.82 500.262 464.82Z" fill="#B7D3FF" stroke="#263238" stroke-miterlimit="10"/>
<path d="M439.371 346.233L433.449 466.206C434.268 466.831 435.215 467.295 436.232 467.572C437.25 467.849 438.318 467.932 439.371 467.816C441.208 467.564 442.887 466.706 444.098 465.401L464.202 367.475H468.339L489.637 467.235C490.909 467.887 492.322 468.269 493.773 468.353C495.836 468.353 499.092 465.938 499.092 465.938L492.29 346.312L439.371 346.233Z" fill="#263238" stroke="#263238" stroke-miterlimit="10"/>
<path d="M460.066 273.53L433.16 283.715L440.251 341.672H491.687L501.154 281.568L471.885 272.993L460.066 273.53Z" fill="#B7D3FF" stroke="#263238" stroke-miterlimit="10"/>
<path d="M463.02 281.837L466.264 286.666L460.945 328.256L467.446 337.111L473.066 327.451L468.628 286.13L472.475 280.506L466.855 278.226L463.02 281.837Z" fill="#263238" stroke="#263238" stroke-miterlimit="10"/>
<path d="M466.855 278.226L462.538 285.08L454.844 275.577L459.149 270.825L466.855 278.226Z" fill="#B7D3FF" stroke="#263238" stroke-miterlimit="10"/>
<path d="M466.855 278.226L472.09 285.773L478.397 275.018L474.707 270.68L466.855 278.226Z" fill="#B7D3FF" stroke="#263238" stroke-miterlimit="10"/>
<path d="M456.411 294.448H438.285V300.172L447.354 303.392L456.411 299.815V294.448Z" fill="#B7D3FF" stroke="#263238" stroke-miterlimit="10"/>
<path d="M492.677 294.448H474.551V300.172L483.608 303.392L492.677 299.815V294.448Z" fill="#B7D3FF" stroke="#263238" stroke-miterlimit="10"/>
<path d="M492.29 340.599H439.371V346.233H492.29V340.599Z" fill="#263238" stroke="#263238" stroke-miterlimit="10"/>
<path d="M438.476 345.16L429.31 348.648C429.16 351.077 429.359 353.513 429.901 355.893C430.794 359.113 431.976 366.089 432.856 367.431C433.736 368.772 438.186 371.456 438.777 370.651C439.368 369.846 442.323 346.233 442.323 346.233L438.476 345.16Z" fill="#263238" stroke="#263238" stroke-miterlimit="10"/>
<path d="M459.148 261.042V270.824L466.855 278.225L474.706 270.679V260.896L459.148 261.042Z" fill="white" stroke="#263238" stroke-miterlimit="10"/>
<path d="M453.771 251.964C453.771 251.964 452.384 249.023 451.455 250.846C450.527 252.668 451.612 255.452 452.999 256.57C454.019 257.256 455.283 257.555 456.533 257.408L455.761 253.216L453.771 251.964Z" fill="white" stroke="#263238" stroke-miterlimit="10"/>
<path d="M478.856 251.964C478.856 251.964 480.243 249.023 481.171 250.846C482.1 252.668 481.015 255.452 479.628 256.57C478.603 257.256 477.336 257.556 476.082 257.408L476.854 253.216L478.856 251.964Z" fill="white" stroke="#263238" stroke-miterlimit="10"/>
<path d="M456.386 232.544C456.386 232.544 449.91 235.06 449.91 239.252C449.91 243.445 450.839 248.196 452.382 250.019C453.926 251.841 455.144 253.093 455.144 253.093L455.458 247.078L459.92 239.957C459.92 239.957 467.313 244.283 471.003 244.283C473.066 244.3 475.127 244.162 477.166 243.87L478.553 250.991L480.555 245.826V241.075C480.555 241.075 484.245 237.855 483.473 235.764C482.701 233.674 470.207 227.1 462.537 228.777C454.867 230.454 456.386 232.544 456.386 232.544Z" fill="#263238" stroke="#263238" stroke-miterlimit="10"/>
<path d="M453.301 246.653C453.301 246.653 455.146 257.129 456.69 259.924C458.719 263.025 461.208 265.848 464.082 268.309C465.156 269.002 469.16 268.443 470.703 268.443C472.247 268.443 476.733 260.058 477.469 258.526C478.205 256.995 478.675 243.858 478.675 243.858L477.324 241.488C477.324 241.488 470.703 243.031 465.469 241.074C462.628 240.131 460.087 238.544 458.077 236.457C458.077 236.457 457.618 241.209 455.761 244.004C453.904 246.799 453.301 246.653 453.301 246.653Z" fill="white" stroke="#263238" stroke-miterlimit="10"/>
<path d="M465.155 247.772C463.292 246.87 461.226 246.391 459.125 246.374C457.321 246.308 455.527 246.642 453.891 247.347C453.891 247.347 453.891 252.099 455.591 253.921C457.292 255.743 462.212 255.173 463.599 253.641C464.986 252.11 465.155 247.772 465.155 247.772Z" fill="#263238" stroke="#263238" stroke-miterlimit="10"/>
<path d="M467.312 247.772C469.175 246.87 471.241 246.391 473.342 246.374C475.146 246.308 476.94 246.642 478.577 247.347C478.577 247.347 478.577 252.099 476.876 253.921C475.176 255.743 470.255 255.173 468.88 253.641C467.505 252.11 467.312 247.772 467.312 247.772Z" fill="#263238" stroke="#263238" stroke-miterlimit="10"/>
<path d="M465.152 247.771H467.311" stroke="#263238" stroke-miterlimit="10"/>
<path d="M433.447 336.306L443.204 336.038L450.597 342.209C450.585 342.999 450.273 343.759 449.716 344.356C448.824 345.161 446.46 344.624 446.46 344.624C446.46 344.624 444.687 348.649 441.431 348.649C438.175 348.649 429.371 343.059 429.371 343.059L433.447 336.306Z" fill="white" stroke="#263238" stroke-miterlimit="10"/>
<path d="M433.159 283.715L400.344 323.695L429.312 343.014L433.448 336.306L424.584 320.475L436.705 310.279L433.159 283.715Z" fill="#B7D3FF" stroke="#263238" stroke-miterlimit="10"/>
<path d="M431.083 331.744L426.066 340.062" stroke="#263238" stroke-linecap="round" stroke-linejoin="round"/>
<path d="M424.585 320.475L420.738 311.353" stroke="#263238" stroke-linecap="round" stroke-linejoin="round"/>
<path d="M501.153 336.306L491.397 336.038L484.004 342.209C484.019 343 484.335 343.76 484.896 344.356C485.777 345.161 488.141 344.624 488.141 344.624C488.141 344.624 489.913 348.649 493.17 348.649C496.426 348.649 505.29 343.059 505.29 343.059L501.153 336.306Z" fill="white" stroke="#263238" stroke-miterlimit="10"/>
<path d="M501.154 281.568L534.259 323.695L505.291 343.014L501.154 336.306L510.018 320.475L496.125 310.01L501.154 281.568Z" fill="#B7D3FF" stroke="#263238" stroke-miterlimit="10"/>
<path d="M503.516 331.744L508.533 340.062" stroke="#263238" stroke-linecap="round" stroke-linejoin="round"/>
<path d="M510.016 320.475L513.863 311.353" stroke="#263238" stroke-linecap="round" stroke-linejoin="round"/>
<path d="M128.441 488.567C160.079 488.567 185.726 483.311 185.726 476.828C185.726 470.345 160.079 465.089 128.441 465.089C96.8036 465.089 71.1562 470.345 71.1562 476.828C71.1562 483.311 96.8036 488.567 128.441 488.567Z" fill="#B7D3FF"/>
<path opacity="0.5" d="M128.441 488.567C160.079 488.567 185.726 483.311 185.726 476.828C185.726 470.345 160.079 465.089 128.441 465.089C96.8036 465.089 71.1562 470.345 71.1562 476.828C71.1562 483.311 96.8036 488.567 128.441 488.567Z" fill="white"/>
<path d="M98.6744 464.82C98.6744 464.82 84.7812 472.065 84.7812 475.553C84.7812 479.041 93.3559 476.895 98.9759 474.435C104.596 471.975 109.022 470.142 109.022 465.312C109.022 460.482 98.6744 464.82 98.6744 464.82Z" fill="#B7D3FF" stroke="#263238" stroke-miterlimit="10"/>
<path d="M165.222 464.82C165.222 464.82 179.116 472.065 179.116 475.553C179.116 479.041 170.553 476.895 164.933 474.435C159.313 471.975 154.875 470.142 154.875 465.312C154.875 460.482 165.222 464.82 165.222 464.82Z" fill="#B7D3FF" stroke="#263238" stroke-miterlimit="10"/>
<path d="M104.296 346.233L98.3867 466.206C99.2031 466.831 100.148 467.296 101.163 467.572C102.179 467.849 103.245 467.932 104.296 467.816C106.134 467.564 107.812 466.706 109.024 465.401L129.128 367.475H133.264L154.55 467.279C155.822 467.932 157.235 468.314 158.687 468.397C160.761 468.397 164.005 465.982 164.005 465.982L157.203 346.356L104.296 346.233Z" fill="#263238" stroke="#263238" stroke-miterlimit="10"/>
<path d="M124.992 273.53L98.0859 283.715L105.177 341.672H156.625L166.08 281.568L136.811 272.993L124.992 273.53Z" fill="#B7D3FF" stroke="#263238" stroke-miterlimit="10"/>
<path d="M157.216 340.599H104.297V346.233H157.216V340.599Z" fill="#263238" stroke="#263238" stroke-miterlimit="10"/>
<path d="M103.402 345.16L94.2361 348.648C94.0858 351.077 94.2845 353.513 94.827 355.893C95.7195 359.113 96.9014 366.089 97.7938 367.431C98.6862 368.772 103.112 371.456 103.703 370.651C104.294 369.846 107.249 346.233 107.249 346.233L103.402 345.16Z" fill="#263238" stroke="#263238" stroke-miterlimit="10"/>
<path d="M124.086 261.042V270.824L131.78 278.225L139.631 270.679V260.896L124.086 261.042Z" fill="white" stroke="#263238" stroke-miterlimit="10"/>
<path d="M118.697 251.964C118.697 251.964 117.31 249.023 116.381 250.846C115.453 252.668 116.538 255.452 117.925 256.57C118.949 257.256 120.217 257.556 121.47 257.408L120.699 253.216L118.697 251.964Z" fill="white" stroke="#263238" stroke-miterlimit="10"/>
<path d="M143.781 251.964C143.781 251.964 145.168 249.023 146.097 250.846C147.025 252.668 145.94 255.452 144.553 256.57C143.533 257.256 142.27 257.555 141.02 257.408L141.779 253.216L143.781 251.964Z" fill="white" stroke="#263238" stroke-miterlimit="10"/>
<path d="M121.312 232.544C121.312 232.544 114.848 235.06 114.848 239.252C114.848 243.445 115.764 248.196 117.26 250.019C118.755 251.841 120.033 253.093 120.033 253.093L120.335 247.078L124.797 239.957C124.797 239.957 132.19 244.283 135.88 244.283C137.943 244.3 140.004 244.162 142.043 243.87L143.43 250.991L145.432 245.826V241.075C145.432 241.075 149.122 237.855 148.35 235.764C147.578 233.674 135.084 227.1 127.414 228.777C119.744 230.454 121.312 232.544 121.312 232.544Z" fill="#263238" stroke="#263238" stroke-miterlimit="10"/>
<path d="M118.188 246.653C118.188 246.653 120.045 257.129 121.576 259.924C123.631 263.031 126.143 265.857 129.042 268.32C130.115 269.013 134.119 268.454 135.662 268.454C137.206 268.454 141.692 260.069 142.44 258.538C143.188 257.006 143.646 243.869 143.646 243.869L142.307 241.488C142.307 241.488 135.687 243.031 130.453 241.074C127.611 240.131 125.07 238.544 123.06 236.457C123.06 236.457 122.601 241.209 120.756 244.004C118.911 246.799 118.188 246.653 118.188 246.653Z" fill="white" stroke="#263238" stroke-miterlimit="10"/>
<path d="M130.08 247.772C128.218 246.87 126.151 246.391 124.05 246.374C122.247 246.308 120.453 246.642 118.816 247.347C118.816 247.347 118.816 252.099 120.505 253.921C122.193 255.743 127.126 255.173 128.513 253.641C129.9 252.11 130.08 247.772 130.08 247.772Z" fill="#263238" stroke="#263238" stroke-miterlimit="10"/>
<path d="M132.238 247.772C134.101 246.87 136.167 246.391 138.268 246.374C140.072 246.308 141.866 246.642 143.502 247.347C143.502 247.347 143.502 252.099 141.802 253.921C140.101 255.743 135.193 255.173 133.806 253.641C132.419 252.11 132.238 247.772 132.238 247.772Z" fill="#263238" stroke="#263238" stroke-miterlimit="10"/>
<path d="M130.078 247.771H132.237" stroke="#263238" stroke-miterlimit="10"/>
<path d="M127.945 281.837L131.19 286.666L125.871 328.256L132.383 337.111L137.991 327.451L133.565 286.13L137.4 280.506L131.78 278.226L127.945 281.837Z" fill="#263238" stroke="#263238" stroke-miterlimit="10"/>
<path d="M131.781 278.226L127.464 285.08L119.77 275.577L124.087 270.825L131.781 278.226Z" fill="#B7D3FF" stroke="#263238" stroke-miterlimit="10"/>
<path d="M131.781 278.226L137.015 285.773L143.323 275.018L139.632 270.68L131.781 278.226Z" fill="#B7D3FF" stroke="#263238" stroke-miterlimit="10"/>
<path d="M98.0848 283.715L65.2695 323.695L94.2377 343.014L98.3863 336.306L89.5101 320.475L101.63 310.279L98.0848 283.715Z" fill="#B7D3FF" stroke="#263238" stroke-miterlimit="10"/>
<path d="M98.3852 336.306L108.13 336.038L115.522 342.209C115.511 342.999 115.199 343.759 114.642 344.356C113.75 345.161 111.386 344.624 111.386 344.624C111.386 344.624 109.613 348.649 106.357 348.649C103.101 348.649 94.2969 343.059 94.2969 343.059L98.3852 336.306Z" fill="white" stroke="#263238" stroke-miterlimit="10"/>
<path d="M96.0212 331.744L90.9922 340.062" stroke="#263238" stroke-linecap="round" stroke-linejoin="round"/>
<path d="M89.5109 320.475L85.6758 311.353" stroke="#263238" stroke-linecap="round" stroke-linejoin="round"/>
<path d="M166.08 281.568L199.185 323.695L170.216 343.014L166.08 336.306L174.944 320.475L161.051 310.01L166.08 281.568Z" fill="#B7D3FF" stroke="#263238" stroke-miterlimit="10"/>
<path d="M166.079 336.306L156.322 336.038L148.93 342.209C148.945 343 149.261 343.76 149.822 344.356C150.703 345.161 153.066 344.624 153.066 344.624C153.066 344.624 154.839 348.649 158.095 348.649C161.351 348.649 170.155 343.059 170.155 343.059L166.079 336.306Z" fill="white" stroke="#263238" stroke-miterlimit="10"/>
<path d="M168.441 331.744L173.47 340.062" stroke="#263238" stroke-linecap="round" stroke-linejoin="round"/>
<path d="M174.941 320.475L178.789 311.353" stroke="#263238" stroke-linecap="round" stroke-linejoin="round"/>
<path d="M121.337 294.448H103.211V300.172L112.28 303.392L121.337 299.815V294.448Z" fill="#B7D3FF" stroke="#263238" stroke-miterlimit="10"/>
<path d="M157.603 294.448H139.477V300.172L148.546 303.392L157.603 299.815V294.448Z" fill="#B7D3FF" stroke="#263238" stroke-miterlimit="10"/>
</g>
<defs>
<filter id="filter0_d_284_338" x="0" y="0" width="633" height="588" filterUnits="userSpaceOnUse" color-interpolation-filters="sRGB">
<feFlood flood-opacity="0" result="BackgroundImageFix"/>
<feColorMatrix in="SourceAlpha" type="matrix" values="0 0 0 0 0 0 0 0 0 0 0 0 0 0 0 0 0 0 127 0" result="hardAlpha"/>
<feOffset dx="26" dy="25"/>
<feGaussianBlur stdDeviation="2"/>
<feComposite in2="hardAlpha" operator="out"/>
<feColorMatrix type="matrix" values="0 0 0 0 0 0 0 0 0 0 0 0 0 0 0 0 0 0 0.25 0"/>
<feBlend mode="normal" in2="BackgroundImageFix" result="effect1_dropShadow_284_338"/>
<feBlend mode="normal" in="SourceGraphic" in2="effect1_dropShadow_284_338" result="shape"/>
</filter>
</defs>
</svg>
