<svg width="926" height="808" viewBox="0 0 926 808" fill="none" xmlns="http://www.w3.org/2000/svg">
<path d="M463 255.838C545.843 255.838 613 322.995 613 405.838C613 488.681 545.843 555.838 463 555.838C380.157 555.838 313 488.681 313 405.838C313 322.995 380.157 255.838 463 255.838ZM463 355.838C435.386 355.838 413 378.224 413 405.838C413 433.452 435.386 455.838 463 455.838C490.614 455.838 513 433.452 513 405.838C513 378.224 490.614 355.838 463 355.838Z" fill="url(#paint0_linear_729_474)"/>
<path d="M463 190.838C581.741 190.838 678 287.097 678 405.838C678 524.579 581.741 620.838 463 620.838C344.259 620.838 248 524.579 248 405.838C248 287.097 344.259 190.838 463 190.838ZM463 240.838C371.873 240.838 298 314.711 298 405.838C298 496.965 371.873 570.838 463 570.838C554.127 570.838 628 496.965 628 405.838C628 314.711 554.127 240.838 463 240.838Z" fill="url(#paint1_linear_729_474)"/>
<path d="M463 125.838C617.64 125.838 743 251.198 743 405.838C743 560.478 617.64 685.838 463 685.838C308.36 685.838 183 560.478 183 405.838C183 251.198 308.36 125.838 463 125.838ZM463 175.838C335.975 175.838 233 278.812 233 405.838C233 532.863 335.975 635.838 463 635.838C590.025 635.838 693 532.863 693 405.838C693 278.812 590.025 175.838 463 175.838Z" fill="url(#paint2_linear_729_474)"/>
<path d="M463 60.8379C653.538 60.8379 808 215.3 808 405.838C808 596.376 653.538 750.838 463 750.838C272.462 750.838 118 596.376 118 405.838C118 215.3 272.462 60.8379 463 60.8379ZM463 110.838C300.076 110.838 168 242.914 168 405.838C168 568.762 300.076 700.838 463 700.838C625.924 700.838 758 568.762 758 405.838C758 242.914 625.924 110.838 463 110.838Z" fill="url(#paint3_linear_729_474)"/>
<path d="M439.986 653.565C439.918 652.878 439.625 652.344 439.108 651.963C438.591 651.582 437.889 651.392 437.003 651.392C436.401 651.392 435.892 651.477 435.477 651.648C435.063 651.812 434.744 652.043 434.523 652.338C434.307 652.634 434.199 652.969 434.199 653.344C434.188 653.656 434.253 653.929 434.395 654.162C434.543 654.395 434.744 654.597 435 654.767C435.256 654.932 435.551 655.077 435.886 655.202C436.222 655.321 436.58 655.423 436.96 655.509L438.528 655.884C439.29 656.054 439.989 656.281 440.625 656.565C441.261 656.849 441.813 657.199 442.278 657.614C442.744 658.028 443.105 658.517 443.361 659.08C443.622 659.642 443.756 660.287 443.761 661.014C443.756 662.082 443.483 663.009 442.943 663.793C442.409 664.571 441.636 665.176 440.625 665.608C439.619 666.034 438.406 666.247 436.986 666.247C435.577 666.247 434.349 666.031 433.304 665.599C432.264 665.168 431.452 664.528 430.866 663.682C430.287 662.83 429.983 661.776 429.955 660.52H433.526C433.565 661.105 433.733 661.594 434.028 661.986C434.33 662.372 434.73 662.665 435.23 662.864C435.736 663.057 436.307 663.153 436.943 663.153C437.568 663.153 438.111 663.062 438.571 662.881C439.037 662.699 439.398 662.446 439.653 662.122C439.909 661.798 440.037 661.426 440.037 661.006C440.037 660.614 439.92 660.284 439.688 660.017C439.46 659.75 439.125 659.523 438.682 659.335C438.244 659.148 437.707 658.977 437.071 658.824L435.17 658.347C433.699 657.989 432.537 657.429 431.685 656.668C430.832 655.906 430.409 654.881 430.415 653.591C430.409 652.534 430.69 651.611 431.259 650.821C431.832 650.031 432.619 649.415 433.619 648.972C434.619 648.528 435.756 648.307 437.028 648.307C438.324 648.307 439.455 648.528 440.42 648.972C441.392 649.415 442.148 650.031 442.688 650.821C443.227 651.611 443.506 652.526 443.523 653.565H439.986ZM449.908 666.247C449.073 666.247 448.329 666.102 447.675 665.812C447.022 665.517 446.505 665.082 446.124 664.509C445.749 663.929 445.562 663.207 445.562 662.344C445.562 661.616 445.695 661.006 445.962 660.511C446.229 660.017 446.593 659.619 447.053 659.318C447.513 659.017 448.036 658.79 448.621 658.636C449.212 658.483 449.832 658.375 450.479 658.312C451.241 658.233 451.854 658.159 452.32 658.091C452.786 658.017 453.124 657.909 453.335 657.767C453.545 657.625 453.65 657.415 453.65 657.136V657.085C453.65 656.545 453.479 656.128 453.138 655.832C452.803 655.537 452.326 655.389 451.707 655.389C451.053 655.389 450.533 655.534 450.147 655.824C449.761 656.108 449.505 656.466 449.38 656.898L446.022 656.625C446.192 655.83 446.528 655.142 447.028 654.562C447.528 653.977 448.173 653.528 448.962 653.216C449.758 652.898 450.678 652.739 451.724 652.739C452.451 652.739 453.147 652.824 453.812 652.994C454.482 653.165 455.076 653.429 455.593 653.787C456.116 654.145 456.528 654.605 456.829 655.168C457.13 655.724 457.281 656.392 457.281 657.17V666H453.837V664.185H453.735C453.525 664.594 453.244 664.955 452.891 665.267C452.539 665.574 452.116 665.815 451.621 665.991C451.127 666.162 450.556 666.247 449.908 666.247ZM450.948 663.741C451.482 663.741 451.954 663.636 452.363 663.426C452.772 663.21 453.093 662.92 453.326 662.557C453.559 662.193 453.675 661.781 453.675 661.321V659.932C453.562 660.006 453.406 660.074 453.207 660.136C453.013 660.193 452.795 660.247 452.55 660.298C452.306 660.344 452.062 660.386 451.817 660.426C451.573 660.46 451.352 660.491 451.153 660.52C450.727 660.582 450.354 660.682 450.036 660.818C449.718 660.955 449.471 661.139 449.295 661.372C449.119 661.599 449.031 661.884 449.031 662.224C449.031 662.719 449.21 663.097 449.567 663.358C449.931 663.614 450.391 663.741 450.948 663.741ZM467.137 652.909V655.636H459.058V652.909H467.137ZM460.907 666V651.963C460.907 651.014 461.092 650.227 461.461 649.602C461.836 648.977 462.347 648.509 462.995 648.196C463.643 647.884 464.379 647.727 465.202 647.727C465.759 647.727 466.268 647.77 466.728 647.855C467.194 647.94 467.54 648.017 467.768 648.085L467.12 650.812C466.978 650.767 466.802 650.724 466.592 650.685C466.387 650.645 466.177 650.625 465.961 650.625C465.427 650.625 465.055 650.75 464.844 651C464.634 651.244 464.529 651.588 464.529 652.031V666H460.907ZM474.852 666.256C473.506 666.256 472.347 665.983 471.375 665.438C470.409 664.886 469.665 664.108 469.142 663.102C468.619 662.091 468.358 660.895 468.358 659.514C468.358 658.168 468.619 656.986 469.142 655.969C469.665 654.952 470.401 654.159 471.349 653.591C472.304 653.023 473.423 652.739 474.707 652.739C475.571 652.739 476.375 652.878 477.119 653.156C477.869 653.429 478.523 653.841 479.08 654.392C479.642 654.943 480.08 655.636 480.392 656.472C480.705 657.301 480.861 658.273 480.861 659.386V660.384H469.807V658.134H477.443C477.443 657.611 477.33 657.148 477.102 656.744C476.875 656.341 476.56 656.026 476.156 655.798C475.759 655.565 475.295 655.449 474.767 655.449C474.216 655.449 473.727 655.577 473.301 655.832C472.881 656.082 472.551 656.42 472.312 656.847C472.074 657.267 471.952 657.736 471.946 658.253V660.392C471.946 661.04 472.065 661.599 472.304 662.071C472.548 662.543 472.892 662.906 473.335 663.162C473.778 663.418 474.304 663.545 474.912 663.545C475.315 663.545 475.685 663.489 476.02 663.375C476.355 663.261 476.642 663.091 476.881 662.864C477.119 662.636 477.301 662.358 477.426 662.028L480.784 662.25C480.614 663.057 480.264 663.761 479.736 664.364C479.213 664.96 478.537 665.426 477.707 665.761C476.884 666.091 475.932 666.256 474.852 666.256ZM490.193 652.909V655.636H482.31V652.909H490.193ZM484.099 649.773H487.73V661.977C487.73 662.312 487.781 662.574 487.884 662.761C487.986 662.943 488.128 663.071 488.31 663.145C488.497 663.219 488.713 663.256 488.957 663.256C489.128 663.256 489.298 663.241 489.469 663.213C489.639 663.179 489.77 663.153 489.861 663.136L490.432 665.838C490.25 665.895 489.994 665.96 489.665 666.034C489.335 666.114 488.935 666.162 488.463 666.179C487.588 666.213 486.821 666.097 486.162 665.83C485.509 665.562 485 665.148 484.636 664.585C484.273 664.023 484.094 663.312 484.099 662.455V649.773ZM494.8 670.909C494.339 670.909 493.908 670.872 493.504 670.798C493.107 670.73 492.777 670.642 492.516 670.534L493.334 667.824C493.76 667.955 494.143 668.026 494.484 668.037C494.831 668.048 495.129 667.969 495.379 667.798C495.635 667.628 495.842 667.338 496.001 666.929L496.214 666.375L491.518 652.909H495.337L498.047 662.523H498.183L500.919 652.909H504.763L499.675 667.415C499.43 668.119 499.098 668.733 498.678 669.256C498.263 669.784 497.737 670.19 497.101 670.474C496.464 670.764 495.697 670.909 494.8 670.909Z" fill="black"/>
<path d="M416.07 586.602C416.008 585.971 415.74 585.482 415.266 585.133C414.792 584.784 414.148 584.609 413.336 584.609C412.784 584.609 412.318 584.687 411.938 584.844C411.557 584.995 411.266 585.206 411.063 585.477C410.865 585.747 410.766 586.055 410.766 586.398C410.755 586.685 410.815 586.935 410.945 587.148C411.081 587.362 411.266 587.547 411.5 587.703C411.734 587.854 412.005 587.987 412.312 588.102C412.62 588.211 412.948 588.305 413.297 588.383L414.734 588.727C415.432 588.883 416.073 589.091 416.656 589.352C417.24 589.612 417.745 589.932 418.172 590.312C418.599 590.693 418.93 591.141 419.164 591.656C419.404 592.172 419.526 592.763 419.531 593.43C419.526 594.409 419.276 595.258 418.781 595.977C418.292 596.69 417.583 597.245 416.656 597.641C415.734 598.031 414.622 598.227 413.32 598.227C412.029 598.227 410.904 598.029 409.945 597.633C408.992 597.237 408.247 596.651 407.711 595.875C407.18 595.094 406.901 594.128 406.875 592.977H410.148C410.185 593.513 410.339 593.961 410.609 594.32C410.885 594.674 411.253 594.943 411.711 595.125C412.174 595.302 412.698 595.391 413.281 595.391C413.854 595.391 414.352 595.307 414.773 595.141C415.201 594.974 415.531 594.742 415.766 594.445C416 594.148 416.117 593.807 416.117 593.422C416.117 593.062 416.01 592.76 415.797 592.516C415.589 592.271 415.281 592.062 414.875 591.891C414.474 591.719 413.982 591.562 413.398 591.422L411.656 590.984C410.307 590.656 409.242 590.143 408.461 589.445C407.68 588.747 407.292 587.807 407.297 586.625C407.292 585.656 407.549 584.81 408.07 584.086C408.596 583.362 409.318 582.797 410.234 582.391C411.151 581.984 412.193 581.781 413.359 581.781C414.547 581.781 415.583 581.984 416.469 582.391C417.359 582.797 418.052 583.362 418.547 584.086C419.042 584.81 419.297 585.648 419.312 586.602H416.07ZM429.439 592.891V586H432.768V598H429.572V595.82H429.447C429.176 596.523 428.726 597.089 428.096 597.516C427.471 597.943 426.708 598.156 425.807 598.156C425.005 598.156 424.299 597.974 423.689 597.609C423.08 597.245 422.604 596.727 422.26 596.055C421.921 595.383 421.749 594.578 421.744 593.641V586H425.072V593.047C425.077 593.755 425.268 594.315 425.643 594.727C426.018 595.138 426.52 595.344 427.15 595.344C427.551 595.344 427.926 595.253 428.275 595.07C428.624 594.883 428.906 594.607 429.119 594.242C429.338 593.878 429.445 593.427 429.439 592.891ZM435.43 598V586H438.656V588.094H438.781C439 587.349 439.367 586.786 439.883 586.406C440.398 586.021 440.992 585.828 441.664 585.828C441.831 585.828 442.01 585.839 442.203 585.859C442.396 585.88 442.565 585.909 442.711 585.945V588.898C442.555 588.852 442.339 588.81 442.063 588.773C441.786 588.737 441.534 588.719 441.305 588.719C440.815 588.719 440.378 588.826 439.992 589.039C439.612 589.247 439.31 589.539 439.086 589.914C438.867 590.289 438.758 590.721 438.758 591.211V598H435.43ZM455.984 586L451.789 598H448.039L443.844 586H447.359L449.852 594.586H449.977L452.461 586H455.984ZM462.77 598.234C461.535 598.234 460.473 597.984 459.582 597.484C458.697 596.979 458.014 596.266 457.535 595.344C457.056 594.417 456.816 593.32 456.816 592.055C456.816 590.82 457.056 589.737 457.535 588.805C458.014 587.872 458.689 587.146 459.559 586.625C460.434 586.104 461.46 585.844 462.637 585.844C463.428 585.844 464.165 585.971 464.848 586.227C465.535 586.477 466.134 586.854 466.645 587.359C467.16 587.865 467.561 588.5 467.848 589.266C468.134 590.026 468.277 590.917 468.277 591.937V592.852H458.145V590.789H465.145C465.145 590.31 465.04 589.885 464.832 589.516C464.624 589.146 464.335 588.857 463.965 588.648C463.6 588.435 463.176 588.328 462.691 588.328C462.186 588.328 461.738 588.445 461.348 588.68C460.962 588.909 460.66 589.219 460.441 589.609C460.223 589.995 460.111 590.424 460.105 590.898V592.859C460.105 593.453 460.215 593.966 460.434 594.398C460.658 594.831 460.973 595.164 461.379 595.398C461.785 595.633 462.267 595.75 462.824 595.75C463.194 595.75 463.533 595.698 463.84 595.594C464.147 595.49 464.41 595.333 464.629 595.125C464.848 594.917 465.014 594.661 465.129 594.359L468.207 594.562C468.051 595.302 467.73 595.948 467.246 596.5C466.767 597.047 466.147 597.474 465.387 597.781C464.632 598.083 463.759 598.234 462.77 598.234ZM470.449 598V586H473.777V598H470.449ZM472.121 584.453C471.626 584.453 471.202 584.289 470.848 583.961C470.499 583.628 470.324 583.229 470.324 582.766C470.324 582.307 470.499 581.914 470.848 581.586C471.202 581.253 471.626 581.086 472.121 581.086C472.616 581.086 473.038 581.253 473.387 581.586C473.741 581.914 473.918 582.307 473.918 582.766C473.918 583.229 473.741 583.628 473.387 583.961C473.038 584.289 472.616 584.453 472.121 584.453ZM479.771 582V598H476.443V582H479.771ZM485.766 582V598H482.438V582H485.766ZM491.854 598.227C491.088 598.227 490.406 598.094 489.807 597.828C489.208 597.557 488.734 597.159 488.385 596.633C488.041 596.102 487.869 595.44 487.869 594.648C487.869 593.982 487.992 593.422 488.236 592.969C488.481 592.516 488.814 592.151 489.236 591.875C489.658 591.599 490.137 591.391 490.674 591.25C491.215 591.109 491.783 591.01 492.377 590.953C493.075 590.88 493.637 590.812 494.064 590.75C494.492 590.682 494.801 590.583 494.994 590.453C495.187 590.323 495.283 590.13 495.283 589.875V589.828C495.283 589.333 495.127 588.951 494.814 588.68C494.507 588.409 494.07 588.273 493.502 588.273C492.903 588.273 492.426 588.406 492.072 588.672C491.718 588.932 491.484 589.26 491.369 589.656L488.291 589.406C488.447 588.677 488.755 588.047 489.213 587.516C489.671 586.979 490.262 586.568 490.986 586.281C491.715 585.99 492.559 585.844 493.518 585.844C494.184 585.844 494.822 585.922 495.432 586.078C496.046 586.234 496.59 586.477 497.064 586.805C497.544 587.133 497.921 587.555 498.197 588.07C498.473 588.581 498.611 589.193 498.611 589.906V598H495.455V596.336H495.361C495.169 596.711 494.911 597.042 494.588 597.328C494.265 597.609 493.877 597.831 493.424 597.992C492.971 598.148 492.447 598.227 491.854 598.227ZM492.807 595.93C493.296 595.93 493.729 595.833 494.104 595.641C494.479 595.443 494.773 595.177 494.986 594.844C495.2 594.51 495.307 594.133 495.307 593.711V592.438C495.202 592.505 495.059 592.568 494.877 592.625C494.7 592.677 494.499 592.727 494.275 592.773C494.051 592.815 493.827 592.854 493.604 592.891C493.38 592.922 493.176 592.951 492.994 592.977C492.604 593.034 492.262 593.125 491.971 593.25C491.679 593.375 491.452 593.544 491.291 593.758C491.13 593.966 491.049 594.227 491.049 594.539C491.049 594.992 491.213 595.339 491.541 595.578C491.874 595.812 492.296 595.93 492.807 595.93ZM504.521 591.063V598H501.193V586H504.365V588.117H504.506C504.771 587.419 505.217 586.867 505.842 586.461C506.467 586.049 507.225 585.844 508.115 585.844C508.949 585.844 509.675 586.026 510.295 586.391C510.915 586.755 511.396 587.276 511.74 587.953C512.084 588.625 512.256 589.427 512.256 590.359V598H508.928V590.953C508.933 590.219 508.745 589.646 508.365 589.234C507.985 588.818 507.462 588.609 506.795 588.609C506.347 588.609 505.951 588.706 505.607 588.898C505.269 589.091 505.003 589.372 504.811 589.742C504.623 590.107 504.527 590.547 504.521 591.063ZM520.301 598.234C519.072 598.234 518.014 597.974 517.129 597.453C516.249 596.927 515.572 596.198 515.098 595.266C514.629 594.333 514.395 593.26 514.395 592.047C514.395 590.818 514.632 589.74 515.105 588.812C515.585 587.88 516.264 587.154 517.145 586.633C518.025 586.107 519.072 585.844 520.285 585.844C521.332 585.844 522.249 586.034 523.035 586.414C523.822 586.794 524.444 587.328 524.902 588.016C525.361 588.703 525.613 589.51 525.66 590.438H522.52C522.431 589.839 522.197 589.357 521.816 588.992C521.441 588.622 520.949 588.437 520.34 588.437C519.824 588.437 519.374 588.578 518.988 588.859C518.608 589.135 518.311 589.539 518.098 590.07C517.884 590.602 517.777 591.245 517.777 592C517.777 592.766 517.882 593.417 518.09 593.953C518.303 594.49 518.603 594.898 518.988 595.18C519.374 595.461 519.824 595.602 520.34 595.602C520.72 595.602 521.061 595.523 521.363 595.367C521.671 595.211 521.923 594.984 522.121 594.687C522.324 594.385 522.457 594.023 522.52 593.602H525.66C525.608 594.518 525.358 595.326 524.91 596.023C524.467 596.716 523.855 597.258 523.074 597.648C522.293 598.039 521.368 598.234 520.301 598.234ZM533.26 598.234C532.025 598.234 530.963 597.984 530.072 597.484C529.187 596.979 528.505 596.266 528.025 595.344C527.546 594.417 527.307 593.32 527.307 592.055C527.307 590.82 527.546 589.737 528.025 588.805C528.505 587.872 529.179 587.146 530.049 586.625C530.924 586.104 531.95 585.844 533.127 585.844C533.919 585.844 534.656 585.971 535.338 586.227C536.025 586.477 536.624 586.854 537.135 587.359C537.65 587.865 538.051 588.5 538.338 589.266C538.624 590.026 538.768 590.917 538.768 591.937V592.852H528.635V590.789H535.635C535.635 590.31 535.531 589.885 535.322 589.516C535.114 589.146 534.825 588.857 534.455 588.648C534.09 588.435 533.666 588.328 533.182 588.328C532.676 588.328 532.229 588.445 531.838 588.68C531.452 588.909 531.15 589.219 530.932 589.609C530.713 589.995 530.601 590.424 530.596 590.898V592.859C530.596 593.453 530.705 593.966 530.924 594.398C531.148 594.831 531.463 595.164 531.869 595.398C532.275 595.633 532.757 595.75 533.314 595.75C533.684 595.75 534.023 595.698 534.33 595.594C534.637 595.49 534.9 595.333 535.119 595.125C535.338 594.917 535.505 594.661 535.619 594.359L538.697 594.562C538.541 595.302 538.221 595.948 537.736 596.5C537.257 597.047 536.637 597.474 535.877 597.781C535.122 598.083 534.249 598.234 533.26 598.234Z" fill="black"/>
<path d="M427.817 719.493C427.737 718.691 427.396 718.068 426.793 717.624C426.189 717.179 425.371 716.957 424.337 716.957C423.634 716.957 423.041 717.057 422.557 717.256C422.073 717.448 421.702 717.716 421.443 718.061C421.191 718.406 421.065 718.797 421.065 719.234C421.052 719.599 421.128 719.917 421.294 720.189C421.466 720.461 421.702 720.696 422 720.895C422.298 721.087 422.643 721.256 423.034 721.402C423.425 721.541 423.843 721.661 424.287 721.76L426.116 722.197C427.005 722.396 427.82 722.661 428.562 722.993C429.305 723.324 429.948 723.732 430.491 724.216C431.035 724.7 431.456 725.27 431.754 725.926C432.059 726.582 432.215 727.335 432.222 728.183C432.215 729.429 431.897 730.51 431.267 731.425C430.644 732.333 429.742 733.039 428.562 733.543C427.389 734.04 425.974 734.288 424.317 734.288C422.673 734.288 421.241 734.036 420.021 733.533C418.808 733.029 417.86 732.283 417.178 731.295C416.501 730.301 416.147 729.071 416.114 727.607H420.28C420.326 728.289 420.522 728.859 420.866 729.317C421.218 729.768 421.685 730.109 422.268 730.341C422.858 730.566 423.525 730.679 424.267 730.679C424.996 730.679 425.629 730.573 426.166 730.361C426.71 730.149 427.131 729.854 427.429 729.476C427.727 729.098 427.876 728.664 427.876 728.173C427.876 727.716 427.741 727.331 427.469 727.02C427.204 726.708 426.813 726.443 426.295 726.224C425.785 726.006 425.159 725.807 424.416 725.628L422.199 725.071C420.482 724.653 419.126 724 418.132 723.112C417.138 722.224 416.644 721.027 416.651 719.523C416.644 718.29 416.972 717.213 417.635 716.291C418.304 715.37 419.223 714.651 420.389 714.134C421.556 713.616 422.882 713.358 424.366 713.358C425.878 713.358 427.197 713.616 428.324 714.134C429.457 714.651 430.339 715.37 430.969 716.291C431.598 717.213 431.923 718.28 431.943 719.493H427.817ZM444.832 727.497V718.727H449.068V734H445.001V731.226H444.842C444.497 732.121 443.924 732.84 443.122 733.384C442.326 733.927 441.355 734.199 440.208 734.199C439.188 734.199 438.289 733.967 437.514 733.503C436.738 733.039 436.132 732.379 435.694 731.524C435.263 730.669 435.045 729.645 435.038 728.452V718.727H439.274V727.696C439.28 728.598 439.522 729.31 440 729.834C440.477 730.357 441.117 730.619 441.919 730.619C442.429 730.619 442.906 730.503 443.35 730.271C443.795 730.033 444.153 729.681 444.424 729.217C444.703 728.753 444.839 728.18 444.832 727.497ZM452.456 739.727V718.727H456.632V721.293H456.821C457.007 720.882 457.275 720.464 457.626 720.04C457.984 719.609 458.448 719.251 459.018 718.966C459.595 718.674 460.311 718.528 461.166 718.528C462.28 718.528 463.307 718.82 464.249 719.403C465.19 719.98 465.942 720.852 466.506 722.018C467.069 723.179 467.351 724.634 467.351 726.384C467.351 728.087 467.076 729.526 466.526 730.699C465.982 731.866 465.24 732.75 464.298 733.354C463.364 733.95 462.316 734.249 461.156 734.249C460.334 734.249 459.635 734.113 459.058 733.841C458.488 733.569 458.021 733.228 457.656 732.817C457.292 732.399 457.013 731.978 456.821 731.554H456.692V739.727H452.456ZM456.602 726.364C456.602 727.272 456.728 728.064 456.98 728.74C457.232 729.416 457.597 729.943 458.074 730.321C458.551 730.692 459.131 730.878 459.814 730.878C460.503 730.878 461.087 730.689 461.564 730.311C462.041 729.927 462.402 729.396 462.648 728.72C462.9 728.037 463.026 727.252 463.026 726.364C463.026 725.482 462.903 724.706 462.658 724.037C462.412 723.367 462.051 722.844 461.574 722.466C461.097 722.088 460.51 721.899 459.814 721.899C459.125 721.899 458.541 722.081 458.064 722.446C457.593 722.811 457.232 723.328 456.98 723.997C456.728 724.667 456.602 725.455 456.602 726.364ZM470.175 739.727V718.727H474.351V721.293H474.54C474.725 720.882 474.994 720.464 475.345 720.04C475.703 719.609 476.167 719.251 476.737 718.966C477.314 718.674 478.03 718.528 478.885 718.528C479.999 718.528 481.026 718.82 481.967 719.403C482.909 719.98 483.661 720.852 484.224 722.018C484.788 723.179 485.07 724.634 485.07 726.384C485.07 728.087 484.795 729.526 484.244 730.699C483.701 731.866 482.958 732.75 482.017 733.354C481.082 733.95 480.035 734.249 478.875 734.249C478.053 734.249 477.354 734.113 476.777 733.841C476.207 733.569 475.74 733.228 475.375 732.817C475.01 732.399 474.732 731.978 474.54 731.554H474.411V739.727H470.175ZM474.321 726.364C474.321 727.272 474.447 728.064 474.699 728.74C474.951 729.416 475.315 729.943 475.793 730.321C476.27 730.692 476.85 730.878 477.533 730.878C478.222 730.878 478.805 730.689 479.283 730.311C479.76 729.927 480.121 729.396 480.366 728.72C480.618 728.037 480.744 727.252 480.744 726.364C480.744 725.482 480.622 724.706 480.376 724.037C480.131 723.367 479.77 722.844 479.293 722.466C478.815 722.088 478.229 721.899 477.533 721.899C476.843 721.899 476.26 722.081 475.783 722.446C475.312 722.811 474.951 723.328 474.699 723.997C474.447 724.667 474.321 725.455 474.321 726.364ZM494.794 734.298C493.25 734.298 491.914 733.97 490.787 733.314C489.667 732.651 488.802 731.73 488.192 730.55C487.582 729.363 487.277 727.988 487.277 726.423C487.277 724.846 487.582 723.467 488.192 722.287C488.802 721.1 489.667 720.179 490.787 719.523C491.914 718.86 493.25 718.528 494.794 718.528C496.339 718.528 497.671 718.86 498.791 719.523C499.918 720.179 500.786 721.1 501.396 722.287C502.006 723.467 502.311 724.846 502.311 726.423C502.311 727.988 502.006 729.363 501.396 730.55C500.786 731.73 499.918 732.651 498.791 733.314C497.671 733.97 496.339 734.298 494.794 734.298ZM494.814 731.017C495.517 731.017 496.103 730.818 496.574 730.42C497.045 730.016 497.399 729.466 497.638 728.77C497.883 728.074 498.006 727.282 498.006 726.393C498.006 725.505 497.883 724.713 497.638 724.017C497.399 723.321 497.045 722.771 496.574 722.366C496.103 721.962 495.517 721.76 494.814 721.76C494.105 721.76 493.508 721.962 493.024 722.366C492.547 722.771 492.186 723.321 491.94 724.017C491.702 724.713 491.582 725.505 491.582 726.393C491.582 727.282 491.702 728.074 491.94 728.77C492.186 729.466 492.547 730.016 493.024 730.42C493.508 730.818 494.105 731.017 494.814 731.017ZM505.065 734V718.727H509.172V721.392H509.331C509.609 720.444 510.077 719.728 510.733 719.244C511.389 718.754 512.145 718.509 513 718.509C513.212 718.509 513.441 718.522 513.686 718.548C513.931 718.575 514.147 718.611 514.332 718.658V722.416C514.134 722.357 513.858 722.304 513.507 722.257C513.156 722.211 512.834 722.188 512.543 722.188C511.92 722.188 511.363 722.323 510.872 722.595C510.388 722.86 510.004 723.232 509.719 723.709C509.44 724.186 509.301 724.736 509.301 725.359V734H505.065ZM525.412 718.727V721.909H516.214V718.727H525.412ZM518.302 715.068H522.538V729.307C522.538 729.698 522.598 730.003 522.717 730.222C522.836 730.434 523.002 730.583 523.214 730.669C523.433 730.755 523.685 730.798 523.97 730.798C524.169 730.798 524.368 730.782 524.566 730.749C524.765 730.709 524.918 730.679 525.024 730.659L525.69 733.811C525.478 733.877 525.18 733.954 524.795 734.04C524.411 734.133 523.943 734.189 523.393 734.209C522.372 734.249 521.477 734.113 520.708 733.801C519.946 733.49 519.353 733.006 518.929 732.349C518.504 731.693 518.296 730.865 518.302 729.864V715.068Z" fill="black"/>
<path d="M412.101 34.8379V20.2924H418.109C419.198 20.2924 420.138 20.5055 420.929 20.9316C421.724 21.353 422.338 21.9425 422.768 22.7001C423.199 23.4529 423.415 24.3289 423.415 25.3279C423.415 26.3317 423.195 27.21 422.754 27.9629C422.319 28.711 421.696 29.291 420.886 29.7029C420.077 30.1149 419.116 30.3208 418.003 30.3208H414.295V27.551H417.349C417.88 27.551 418.322 27.4586 418.678 27.274C419.037 27.0893 419.31 26.8313 419.494 26.4998C419.679 26.1636 419.771 25.773 419.771 25.3279C419.771 24.8781 419.679 24.4899 419.494 24.1632C419.31 23.8317 419.037 23.5761 418.678 23.3961C418.318 23.2162 417.875 23.1262 417.349 23.1262H415.616V34.8379H412.101ZM425.148 34.8379V23.9288H428.521V25.9174H428.635C428.834 25.1977 429.158 24.6627 429.608 24.3123C430.058 23.9572 430.581 23.7797 431.178 23.7797C431.339 23.7797 431.504 23.7915 431.675 23.8152C431.845 23.8341 432.004 23.8649 432.151 23.9075V26.926C431.985 26.8691 431.767 26.8242 431.497 26.791C431.232 26.7579 430.995 26.7413 430.787 26.7413C430.375 26.7413 430.003 26.8336 429.672 27.0183C429.345 27.1982 429.087 27.4515 428.898 27.7782C428.713 28.1002 428.621 28.479 428.621 28.9146V34.8379H425.148ZM438.092 35.0439C436.946 35.0439 435.961 34.8095 435.137 34.3407C434.318 33.8672 433.686 33.2091 433.241 32.3663C432.8 31.5188 432.58 30.5363 432.58 29.4189C432.58 28.2967 432.8 27.3142 433.241 26.4714C433.686 25.6239 434.318 24.9657 435.137 24.497C435.961 24.0235 436.946 23.7868 438.092 23.7868C439.237 23.7868 440.22 24.0235 441.039 24.497C441.863 24.9657 442.495 25.6239 442.935 26.4714C443.38 27.3142 443.603 28.2967 443.603 29.4189C443.603 30.5363 443.38 31.5188 442.935 32.3663C442.495 33.2091 441.863 33.8672 441.039 34.3407C440.22 34.8095 439.237 35.0439 438.092 35.0439ZM438.113 32.4231C438.53 32.4231 438.882 32.2953 439.171 32.0396C439.46 31.7839 439.68 31.4288 439.832 30.9743C439.988 30.5197 440.066 29.9941 440.066 29.3975C440.066 28.7915 439.988 28.2612 439.832 27.8066C439.68 27.3521 439.46 26.997 439.171 26.7413C438.882 26.4856 438.53 26.3578 438.113 26.3578C437.682 26.3578 437.317 26.4856 437.019 26.7413C436.726 26.997 436.501 27.3521 436.344 27.8066C436.193 28.2612 436.117 28.7915 436.117 29.3975C436.117 29.9941 436.193 30.5197 436.344 30.9743C436.501 31.4288 436.726 31.7839 437.019 32.0396C437.317 32.2953 437.682 32.4231 438.113 32.4231ZM450.474 35.0439C449.324 35.0439 448.337 34.8071 447.513 34.3336C446.694 33.8601 446.064 33.202 445.624 32.3592C445.183 31.5117 444.963 30.5315 444.963 29.4189C444.963 28.3014 445.183 27.3213 445.624 26.4785C446.069 25.631 446.701 24.9705 447.52 24.497C448.344 24.0235 449.326 23.7868 450.467 23.7868C451.476 23.7868 452.354 23.969 453.102 24.3336C453.855 24.6982 454.442 25.2143 454.864 25.8819C455.29 26.5448 455.515 27.3237 455.538 28.2186H452.293C452.226 27.6599 452.037 27.2219 451.724 26.9047C451.417 26.5874 451.014 26.4288 450.517 26.4288C450.115 26.4288 449.762 26.5424 449.459 26.7697C449.156 26.9922 448.919 27.3237 448.749 27.764C448.583 28.1996 448.5 28.7394 448.5 29.3833C448.5 30.0273 448.583 30.5718 448.749 31.0169C448.919 31.4572 449.156 31.791 449.459 32.0183C449.762 32.2408 450.115 32.3521 450.517 32.3521C450.839 32.3521 451.123 32.2834 451.369 32.1461C451.62 32.0088 451.826 31.8076 451.987 31.5424C452.148 31.2725 452.25 30.9458 452.293 30.5623H455.538C455.505 31.4619 455.28 32.2479 454.864 32.9203C454.452 33.5926 453.872 34.1158 453.124 34.4899C452.38 34.8592 451.497 35.0439 450.474 35.0439ZM462.415 35.0439C461.274 35.0439 460.289 34.819 459.461 34.3691C458.637 33.9146 458.002 33.2683 457.557 32.4302C457.117 31.5874 456.897 30.586 456.897 29.426C456.897 28.2991 457.119 27.3142 457.564 26.4714C458.009 25.6239 458.637 24.9657 459.446 24.497C460.256 24.0235 461.21 23.7868 462.309 23.7868C463.085 23.7868 463.795 23.9075 464.439 24.149C465.083 24.3904 465.64 24.7479 466.108 25.2214C466.577 25.6949 466.942 26.2797 467.202 26.9757C467.462 27.667 467.593 28.46 467.593 29.3549V30.2214H458.111V28.2044H464.361C464.356 27.835 464.269 27.506 464.098 27.2172C463.928 26.9283 463.694 26.7034 463.395 26.5424C463.102 26.3767 462.763 26.2939 462.38 26.2939C461.991 26.2939 461.643 26.3815 461.336 26.5566C461.028 26.7271 460.784 26.9615 460.604 27.2598C460.424 27.5533 460.329 27.8871 460.32 28.2612V30.3137C460.32 30.7588 460.408 31.1494 460.583 31.4856C460.758 31.8171 461.007 32.0751 461.328 32.2598C461.65 32.4444 462.034 32.5368 462.479 32.5368C462.787 32.5368 463.066 32.4941 463.317 32.4089C463.568 32.3237 463.783 32.1982 463.963 32.0325C464.143 31.8668 464.278 31.6632 464.368 31.4217L467.557 31.514C467.425 32.229 467.133 32.8516 466.684 33.3819C466.239 33.9075 465.654 34.3171 464.929 34.6106C464.205 34.8994 463.367 35.0439 462.415 35.0439ZM478.891 27.2598L475.702 27.345C475.669 27.1177 475.579 26.9165 475.432 26.7413C475.285 26.5614 475.093 26.4217 474.857 26.3223C474.625 26.2181 474.355 26.166 474.047 26.166C473.644 26.166 473.301 26.2465 473.017 26.4075C472.738 26.5685 472.6 26.7863 472.605 27.0609C472.6 27.274 472.686 27.4586 472.861 27.6149C473.041 27.7711 473.36 27.8966 473.82 27.9913L475.922 28.389C477.011 28.5974 477.821 28.943 478.351 29.426C478.886 29.9089 479.156 30.5481 479.161 31.3436C479.156 32.0917 478.933 32.7427 478.493 33.2967C478.057 33.8507 477.461 34.2815 476.703 34.5893C475.946 34.8923 475.079 35.0439 474.104 35.0439C472.546 35.0439 471.317 34.7243 470.418 34.085C469.523 33.4411 469.011 32.5794 468.884 31.4998L472.314 31.4146C472.39 31.8123 472.586 32.1154 472.903 32.3237C473.221 32.532 473.625 32.6362 474.118 32.6362C474.563 32.6362 474.925 32.5533 475.205 32.3876C475.484 32.2219 475.626 32.0017 475.631 31.7271C475.626 31.4809 475.517 31.2844 475.304 31.1376C475.091 30.9861 474.757 30.8677 474.303 30.7825L472.399 30.4203C471.305 30.2214 470.491 29.8545 469.956 29.3194C469.421 28.7797 469.156 28.0931 469.161 27.2598C469.156 26.5306 469.35 25.908 469.743 25.3919C470.136 24.871 470.695 24.4733 471.419 24.1987C472.143 23.9241 472.998 23.7868 473.983 23.7868C475.46 23.7868 476.625 24.0969 477.477 24.7172C478.33 25.3327 478.801 26.1802 478.891 27.2598ZM490.395 27.2598L487.206 27.345C487.172 27.1177 487.083 26.9165 486.936 26.7413C486.789 26.5614 486.597 26.4217 486.36 26.3223C486.128 26.2181 485.859 26.166 485.551 26.166C485.148 26.166 484.805 26.2465 484.521 26.4075C484.242 26.5685 484.104 26.7863 484.109 27.0609C484.104 27.274 484.19 27.4586 484.365 27.6149C484.545 27.7711 484.864 27.8966 485.324 27.9913L487.426 28.389C488.515 28.5974 489.324 28.943 489.855 29.426C490.39 29.9089 490.66 30.5481 490.664 31.3436C490.66 32.0917 490.437 32.7427 489.997 33.2967C489.561 33.8507 488.965 34.2815 488.207 34.5893C487.449 34.8923 486.583 35.0439 485.608 35.0439C484.05 35.0439 482.821 34.7243 481.922 34.085C481.027 33.4411 480.515 32.5794 480.387 31.4998L483.818 31.4146C483.894 31.8123 484.09 32.1154 484.407 32.3237C484.725 32.532 485.129 32.6362 485.622 32.6362C486.067 32.6362 486.429 32.5533 486.708 32.3876C486.988 32.2219 487.13 32.0017 487.135 31.7271C487.13 31.4809 487.021 31.2844 486.808 31.1376C486.595 30.9861 486.261 30.8677 485.806 30.7825L483.903 30.4203C482.809 30.2214 481.995 29.8545 481.46 29.3194C480.925 28.7797 480.66 28.0931 480.664 27.2598C480.66 26.5306 480.854 25.908 481.247 25.3919C481.64 24.871 482.199 24.4733 482.923 24.1987C483.647 23.9241 484.502 23.7868 485.487 23.7868C486.964 23.7868 488.129 24.0969 488.981 24.7172C489.833 25.3327 490.305 26.1802 490.395 27.2598ZM503.369 20.2924V34.8379H499.86V23.5737H499.775L496.522 25.5623V22.5225L500.109 20.2924H503.369Z" fill="black"/>
<path d="M829.101 412.838V398.292H835.109C836.198 398.292 837.138 398.506 837.929 398.932C838.724 399.353 839.338 399.943 839.768 400.7C840.199 401.453 840.415 402.329 840.415 403.328C840.415 404.332 840.195 405.21 839.754 405.963C839.319 406.711 838.696 407.291 837.886 407.703C837.077 408.115 836.116 408.321 835.003 408.321H831.295V405.551H834.349C834.88 405.551 835.322 405.459 835.678 405.274C836.037 405.089 836.31 404.831 836.494 404.5C836.679 404.164 836.771 403.773 836.771 403.328C836.771 402.878 836.679 402.49 836.494 402.163C836.31 401.832 836.037 401.576 835.678 401.396C835.318 401.216 834.875 401.126 834.349 401.126H832.616V412.838H829.101ZM842.148 412.838V401.929H845.521V403.917H845.635C845.834 403.198 846.158 402.663 846.608 402.312C847.058 401.957 847.581 401.78 848.178 401.78C848.339 401.78 848.504 401.791 848.675 401.815C848.845 401.834 849.004 401.865 849.151 401.907V404.926C848.985 404.869 848.767 404.824 848.497 404.791C848.232 404.758 847.995 404.741 847.787 404.741C847.375 404.741 847.003 404.834 846.672 405.018C846.345 405.198 846.087 405.452 845.898 405.778C845.713 406.1 845.621 406.479 845.621 406.915V412.838H842.148ZM855.092 413.044C853.946 413.044 852.961 412.809 852.137 412.341C851.318 411.867 850.686 411.209 850.241 410.366C849.8 409.519 849.58 408.536 849.58 407.419C849.58 406.297 849.8 405.314 850.241 404.471C850.686 403.624 851.318 402.966 852.137 402.497C852.961 402.023 853.946 401.787 855.092 401.787C856.237 401.787 857.22 402.023 858.039 402.497C858.863 402.966 859.495 403.624 859.935 404.471C860.38 405.314 860.603 406.297 860.603 407.419C860.603 408.536 860.38 409.519 859.935 410.366C859.495 411.209 858.863 411.867 858.039 412.341C857.22 412.809 856.237 413.044 855.092 413.044ZM855.113 410.423C855.53 410.423 855.882 410.295 856.171 410.04C856.46 409.784 856.68 409.429 856.832 408.974C856.988 408.52 857.066 407.994 857.066 407.398C857.066 406.791 856.988 406.261 856.832 405.807C856.68 405.352 856.46 404.997 856.171 404.741C855.882 404.486 855.53 404.358 855.113 404.358C854.682 404.358 854.317 404.486 854.019 404.741C853.726 404.997 853.501 405.352 853.344 405.807C853.193 406.261 853.117 406.791 853.117 407.398C853.117 407.994 853.193 408.52 853.344 408.974C853.501 409.429 853.726 409.784 854.019 410.04C854.317 410.295 854.682 410.423 855.113 410.423ZM867.474 413.044C866.324 413.044 865.337 412.807 864.513 412.334C863.694 411.86 863.064 411.202 862.624 410.359C862.183 409.512 861.963 408.532 861.963 407.419C861.963 406.301 862.183 405.321 862.624 404.479C863.069 403.631 863.701 402.97 864.52 402.497C865.344 402.023 866.326 401.787 867.467 401.787C868.476 401.787 869.354 401.969 870.102 402.334C870.855 402.698 871.442 403.214 871.864 403.882C872.29 404.545 872.515 405.324 872.538 406.219H869.293C869.226 405.66 869.037 405.222 868.724 404.905C868.417 404.587 868.014 404.429 867.517 404.429C867.115 404.429 866.762 404.542 866.459 404.77C866.156 404.992 865.919 405.324 865.749 405.764C865.583 406.2 865.5 406.739 865.5 407.383C865.5 408.027 865.583 408.572 865.749 409.017C865.919 409.457 866.156 409.791 866.459 410.018C866.762 410.241 867.115 410.352 867.517 410.352C867.839 410.352 868.123 410.283 868.369 410.146C868.62 410.009 868.826 409.808 868.987 409.542C869.148 409.273 869.25 408.946 869.293 408.562H872.538C872.505 409.462 872.28 410.248 871.864 410.92C871.452 411.593 870.872 412.116 870.124 412.49C869.38 412.859 868.497 413.044 867.474 413.044ZM879.415 413.044C878.274 413.044 877.289 412.819 876.461 412.369C875.637 411.915 875.002 411.268 874.557 410.43C874.117 409.587 873.897 408.586 873.897 407.426C873.897 406.299 874.119 405.314 874.564 404.471C875.009 403.624 875.637 402.966 876.446 402.497C877.256 402.023 878.21 401.787 879.309 401.787C880.085 401.787 880.795 401.907 881.439 402.149C882.083 402.39 882.64 402.748 883.108 403.221C883.577 403.695 883.942 404.28 884.202 404.976C884.462 405.667 884.593 406.46 884.593 407.355V408.221H875.111V406.204H881.361C881.356 405.835 881.269 405.506 881.098 405.217C880.928 404.928 880.694 404.703 880.395 404.542C880.102 404.377 879.763 404.294 879.38 404.294C878.991 404.294 878.643 404.381 878.336 404.557C878.028 404.727 877.784 404.961 877.604 405.26C877.424 405.553 877.329 405.887 877.32 406.261V408.314C877.32 408.759 877.408 409.149 877.583 409.486C877.758 409.817 878.007 410.075 878.328 410.26C878.65 410.444 879.034 410.537 879.479 410.537C879.787 410.537 880.066 410.494 880.317 410.409C880.568 410.324 880.783 410.198 880.963 410.032C881.143 409.867 881.278 409.663 881.368 409.422L884.557 409.514C884.425 410.229 884.133 410.852 883.684 411.382C883.239 411.907 882.654 412.317 881.929 412.611C881.205 412.899 880.367 413.044 879.415 413.044ZM895.891 405.26L892.702 405.345C892.669 405.118 892.579 404.916 892.432 404.741C892.285 404.561 892.093 404.422 891.857 404.322C891.625 404.218 891.355 404.166 891.047 404.166C890.644 404.166 890.301 404.247 890.017 404.407C889.738 404.568 889.6 404.786 889.605 405.061C889.6 405.274 889.686 405.459 889.861 405.615C890.041 405.771 890.36 405.897 890.82 405.991L892.922 406.389C894.011 406.597 894.821 406.943 895.351 407.426C895.886 407.909 896.156 408.548 896.161 409.344C896.156 410.092 895.933 410.743 895.493 411.297C895.057 411.851 894.461 412.282 893.703 412.589C892.946 412.892 892.079 413.044 891.104 413.044C889.546 413.044 888.317 412.724 887.418 412.085C886.523 411.441 886.011 410.579 885.884 409.5L889.314 409.415C889.39 409.812 889.586 410.115 889.903 410.324C890.221 410.532 890.625 410.636 891.118 410.636C891.563 410.636 891.925 410.553 892.205 410.388C892.484 410.222 892.626 410.002 892.631 409.727C892.626 409.481 892.517 409.284 892.304 409.138C892.091 408.986 891.757 408.868 891.303 408.782L889.399 408.42C888.305 408.221 887.491 407.854 886.956 407.319C886.421 406.78 886.156 406.093 886.161 405.26C886.156 404.531 886.35 403.908 886.743 403.392C887.136 402.871 887.695 402.473 888.419 402.199C889.143 401.924 889.998 401.787 890.983 401.787C892.46 401.787 893.625 402.097 894.477 402.717C895.33 403.333 895.801 404.18 895.891 405.26ZM907.395 405.26L904.206 405.345C904.172 405.118 904.083 404.916 903.936 404.741C903.789 404.561 903.597 404.422 903.36 404.322C903.128 404.218 902.859 404.166 902.551 404.166C902.148 404.166 901.805 404.247 901.521 404.407C901.242 404.568 901.104 404.786 901.109 405.061C901.104 405.274 901.19 405.459 901.365 405.615C901.545 405.771 901.864 405.897 902.324 405.991L904.426 406.389C905.515 406.597 906.324 406.943 906.855 407.426C907.39 407.909 907.66 408.548 907.664 409.344C907.66 410.092 907.437 410.743 906.997 411.297C906.561 411.851 905.965 412.282 905.207 412.589C904.449 412.892 903.583 413.044 902.608 413.044C901.05 413.044 899.821 412.724 898.922 412.085C898.027 411.441 897.515 410.579 897.387 409.5L900.818 409.415C900.894 409.812 901.09 410.115 901.407 410.324C901.725 410.532 902.129 410.636 902.622 410.636C903.067 410.636 903.429 410.553 903.708 410.388C903.988 410.222 904.13 410.002 904.135 409.727C904.13 409.481 904.021 409.284 903.808 409.138C903.595 408.986 903.261 408.868 902.806 408.782L900.903 408.42C899.809 408.221 898.995 407.854 898.46 407.319C897.925 406.78 897.66 406.093 897.664 405.26C897.66 404.531 897.854 403.908 898.247 403.392C898.64 402.871 899.199 402.473 899.923 402.199C900.647 401.924 901.502 401.787 902.487 401.787C903.964 401.787 905.129 402.097 905.981 402.717C906.833 403.333 907.305 404.18 907.395 405.26ZM913.643 412.838V410.309L918.948 405.665C919.346 405.305 919.684 404.976 919.964 404.677C920.243 404.374 920.456 404.071 920.603 403.768C920.75 403.461 920.823 403.127 920.823 402.767C920.823 402.364 920.736 402.021 920.56 401.737C920.385 401.448 920.144 401.226 919.836 401.069C919.528 400.913 919.175 400.835 918.778 400.835C918.375 400.835 918.022 400.918 917.719 401.084C917.416 401.245 917.18 401.479 917.009 401.787C916.844 402.095 916.761 402.469 916.761 402.909H913.43C913.43 401.919 913.652 401.065 914.097 400.345C914.542 399.625 915.167 399.071 915.972 398.683C916.782 398.29 917.722 398.094 918.792 398.094C919.895 398.094 920.854 398.278 921.668 398.648C922.483 399.017 923.112 399.533 923.558 400.196C924.007 400.854 924.232 401.619 924.232 402.49C924.232 403.044 924.121 403.593 923.898 404.138C923.676 404.682 923.276 405.283 922.698 405.942C922.125 406.6 921.311 407.388 920.255 408.307L918.515 409.912V410.004H924.41V412.838H913.643Z" fill="black"/>
<path d="M425.101 802.838V788.292H431.109C432.198 788.292 433.138 788.506 433.929 788.932C434.724 789.353 435.338 789.943 435.768 790.7C436.199 791.453 436.415 792.329 436.415 793.328C436.415 794.332 436.195 795.21 435.754 795.963C435.319 796.711 434.696 797.291 433.886 797.703C433.077 798.115 432.116 798.321 431.003 798.321H427.295V795.551H430.349C430.88 795.551 431.322 795.459 431.678 795.274C432.037 795.089 432.31 794.831 432.494 794.5C432.679 794.164 432.771 793.773 432.771 793.328C432.771 792.878 432.679 792.49 432.494 792.163C432.31 791.832 432.037 791.576 431.678 791.396C431.318 791.216 430.875 791.126 430.349 791.126H428.616V802.838H425.101ZM438.148 802.838V791.929H441.521V793.917H441.635C441.834 793.198 442.158 792.663 442.608 792.312C443.058 791.957 443.581 791.78 444.178 791.78C444.339 791.78 444.504 791.791 444.675 791.815C444.845 791.834 445.004 791.865 445.151 791.907V794.926C444.985 794.869 444.767 794.824 444.497 794.791C444.232 794.758 443.995 794.741 443.787 794.741C443.375 794.741 443.003 794.834 442.672 795.018C442.345 795.198 442.087 795.452 441.898 795.778C441.713 796.1 441.621 796.479 441.621 796.915V802.838H438.148ZM451.092 803.044C449.946 803.044 448.961 802.809 448.137 802.341C447.318 801.867 446.686 801.209 446.241 800.366C445.8 799.519 445.58 798.536 445.58 797.419C445.58 796.297 445.8 795.314 446.241 794.471C446.686 793.624 447.318 792.966 448.137 792.497C448.961 792.023 449.946 791.787 451.092 791.787C452.237 791.787 453.22 792.023 454.039 792.497C454.863 792.966 455.495 793.624 455.935 794.471C456.38 795.314 456.603 796.297 456.603 797.419C456.603 798.536 456.38 799.519 455.935 800.366C455.495 801.209 454.863 801.867 454.039 802.341C453.22 802.809 452.237 803.044 451.092 803.044ZM451.113 800.423C451.53 800.423 451.882 800.295 452.171 800.04C452.46 799.784 452.68 799.429 452.832 798.974C452.988 798.52 453.066 797.994 453.066 797.398C453.066 796.791 452.988 796.261 452.832 795.807C452.68 795.352 452.46 794.997 452.171 794.741C451.882 794.486 451.53 794.358 451.113 794.358C450.682 794.358 450.317 794.486 450.019 794.741C449.726 794.997 449.501 795.352 449.344 795.807C449.193 796.261 449.117 796.791 449.117 797.398C449.117 797.994 449.193 798.52 449.344 798.974C449.501 799.429 449.726 799.784 450.019 800.04C450.317 800.295 450.682 800.423 451.113 800.423ZM463.474 803.044C462.324 803.044 461.337 802.807 460.513 802.334C459.694 801.86 459.064 801.202 458.624 800.359C458.183 799.512 457.963 798.532 457.963 797.419C457.963 796.301 458.183 795.321 458.624 794.479C459.069 793.631 459.701 792.97 460.52 792.497C461.344 792.023 462.326 791.787 463.467 791.787C464.476 791.787 465.354 791.969 466.102 792.334C466.855 792.698 467.442 793.214 467.864 793.882C468.29 794.545 468.515 795.324 468.538 796.219H465.293C465.226 795.66 465.037 795.222 464.724 794.905C464.417 794.587 464.014 794.429 463.517 794.429C463.115 794.429 462.762 794.542 462.459 794.77C462.156 794.992 461.919 795.324 461.749 795.764C461.583 796.2 461.5 796.739 461.5 797.383C461.5 798.027 461.583 798.572 461.749 799.017C461.919 799.457 462.156 799.791 462.459 800.018C462.762 800.241 463.115 800.352 463.517 800.352C463.839 800.352 464.123 800.283 464.369 800.146C464.62 800.009 464.826 799.808 464.987 799.542C465.148 799.273 465.25 798.946 465.293 798.562H468.538C468.505 799.462 468.28 800.248 467.864 800.92C467.452 801.593 466.872 802.116 466.124 802.49C465.38 802.859 464.497 803.044 463.474 803.044ZM475.415 803.044C474.274 803.044 473.289 802.819 472.461 802.369C471.637 801.915 471.002 801.268 470.557 800.43C470.117 799.587 469.897 798.586 469.897 797.426C469.897 796.299 470.119 795.314 470.564 794.471C471.009 793.624 471.637 792.966 472.446 792.497C473.256 792.023 474.21 791.787 475.309 791.787C476.085 791.787 476.795 791.907 477.439 792.149C478.083 792.39 478.64 792.748 479.108 793.221C479.577 793.695 479.942 794.28 480.202 794.976C480.462 795.667 480.593 796.46 480.593 797.355V798.221H471.111V796.204H477.361C477.356 795.835 477.269 795.506 477.098 795.217C476.928 794.928 476.694 794.703 476.395 794.542C476.102 794.377 475.763 794.294 475.38 794.294C474.991 794.294 474.643 794.381 474.336 794.557C474.028 794.727 473.784 794.961 473.604 795.26C473.424 795.553 473.329 795.887 473.32 796.261V798.314C473.32 798.759 473.408 799.149 473.583 799.486C473.758 799.817 474.007 800.075 474.328 800.26C474.65 800.444 475.034 800.537 475.479 800.537C475.787 800.537 476.066 800.494 476.317 800.409C476.568 800.324 476.783 800.198 476.963 800.032C477.143 799.867 477.278 799.663 477.368 799.422L480.557 799.514C480.425 800.229 480.133 800.852 479.684 801.382C479.239 801.907 478.654 802.317 477.929 802.611C477.205 802.899 476.367 803.044 475.415 803.044ZM491.891 795.26L488.702 795.345C488.669 795.118 488.579 794.916 488.432 794.741C488.285 794.561 488.093 794.422 487.857 794.322C487.625 794.218 487.355 794.166 487.047 794.166C486.644 794.166 486.301 794.247 486.017 794.407C485.738 794.568 485.6 794.786 485.605 795.061C485.6 795.274 485.686 795.459 485.861 795.615C486.041 795.771 486.36 795.897 486.82 795.991L488.922 796.389C490.011 796.597 490.821 796.943 491.351 797.426C491.886 797.909 492.156 798.548 492.161 799.344C492.156 800.092 491.933 800.743 491.493 801.297C491.057 801.851 490.461 802.282 489.703 802.589C488.946 802.892 488.079 803.044 487.104 803.044C485.546 803.044 484.317 802.724 483.418 802.085C482.523 801.441 482.011 800.579 481.884 799.5L485.314 799.415C485.39 799.812 485.586 800.115 485.903 800.324C486.221 800.532 486.625 800.636 487.118 800.636C487.563 800.636 487.925 800.553 488.205 800.388C488.484 800.222 488.626 800.002 488.631 799.727C488.626 799.481 488.517 799.284 488.304 799.138C488.091 798.986 487.757 798.868 487.303 798.782L485.399 798.42C484.305 798.221 483.491 797.854 482.956 797.319C482.421 796.78 482.156 796.093 482.161 795.26C482.156 794.531 482.35 793.908 482.743 793.392C483.136 792.871 483.695 792.473 484.419 792.199C485.143 791.924 485.998 791.787 486.983 791.787C488.46 791.787 489.625 792.097 490.477 792.717C491.33 793.333 491.801 794.18 491.891 795.26ZM503.395 795.26L500.206 795.345C500.172 795.118 500.083 794.916 499.936 794.741C499.789 794.561 499.597 794.422 499.36 794.322C499.128 794.218 498.859 794.166 498.551 794.166C498.148 794.166 497.805 794.247 497.521 794.407C497.242 794.568 497.104 794.786 497.109 795.061C497.104 795.274 497.19 795.459 497.365 795.615C497.545 795.771 497.864 795.897 498.324 795.991L500.426 796.389C501.515 796.597 502.324 796.943 502.855 797.426C503.39 797.909 503.66 798.548 503.664 799.344C503.66 800.092 503.437 800.743 502.997 801.297C502.561 801.851 501.965 802.282 501.207 802.589C500.449 802.892 499.583 803.044 498.608 803.044C497.05 803.044 495.821 802.724 494.922 802.085C494.027 801.441 493.515 800.579 493.387 799.5L496.818 799.415C496.894 799.812 497.09 800.115 497.407 800.324C497.725 800.532 498.129 800.636 498.622 800.636C499.067 800.636 499.429 800.553 499.708 800.388C499.988 800.222 500.13 800.002 500.135 799.727C500.13 799.481 500.021 799.284 499.808 799.138C499.595 798.986 499.261 798.868 498.806 798.782L496.903 798.42C495.809 798.221 494.995 797.854 494.46 797.319C493.925 796.78 493.66 796.093 493.664 795.26C493.66 794.531 493.854 793.908 494.247 793.392C494.64 792.871 495.199 792.473 495.923 792.199C496.647 791.924 497.502 791.787 498.487 791.787C499.964 791.787 501.129 792.097 501.981 792.717C502.833 793.333 503.305 794.18 503.395 795.26ZM515.175 803.037C514.067 803.037 513.085 802.847 512.228 802.469C511.376 802.085 510.703 801.557 510.211 800.885C509.719 800.212 509.468 799.438 509.458 798.562H512.995C513.009 798.88 513.111 799.161 513.3 799.407C513.49 799.649 513.748 799.838 514.075 799.976C514.401 800.113 514.773 800.182 515.19 800.182C515.606 800.182 515.973 800.108 516.29 799.961C516.612 799.81 516.863 799.604 517.043 799.344C517.223 799.078 517.311 798.775 517.306 798.434C517.311 798.094 517.214 797.791 517.015 797.525C516.816 797.26 516.534 797.054 516.17 796.907C515.81 796.761 515.384 796.687 514.891 796.687H513.478V794.187H514.891C515.322 794.187 515.701 794.116 516.028 793.974C516.359 793.832 516.617 793.633 516.802 793.378C516.987 793.117 517.076 792.819 517.072 792.483C517.076 792.156 516.998 791.87 516.837 791.623C516.681 791.372 516.461 791.178 516.177 791.041C515.897 790.904 515.573 790.835 515.204 790.835C514.816 790.835 514.463 790.904 514.146 791.041C513.833 791.178 513.585 791.372 513.4 791.623C513.215 791.874 513.118 792.166 513.109 792.497H509.749C509.759 791.631 510 790.868 510.474 790.21C510.947 789.547 511.591 789.029 512.406 788.655C513.225 788.281 514.157 788.094 515.204 788.094C516.246 788.094 517.162 788.276 517.952 788.64C518.743 789.005 519.359 789.502 519.799 790.132C520.239 790.757 520.46 791.465 520.46 792.256C520.464 793.075 520.197 793.749 519.657 794.28C519.122 794.81 518.433 795.137 517.59 795.26V795.373C518.717 795.506 519.567 795.871 520.14 796.467C520.718 797.064 521.004 797.809 520.999 798.704C520.999 799.547 520.751 800.295 520.254 800.949C519.761 801.597 519.075 802.109 518.194 802.483C517.318 802.852 516.312 803.037 515.175 803.037Z" fill="black"/>
<path d="M1.10085 412.838V398.292H7.10938C8.19839 398.292 9.13826 398.506 9.92898 398.932C10.7244 399.353 11.3376 399.943 11.7685 400.7C12.1993 401.453 12.4148 402.329 12.4148 403.328C12.4148 404.332 12.1946 405.21 11.7543 405.963C11.3187 406.711 10.696 407.291 9.88636 407.703C9.0767 408.115 8.11553 408.321 7.00284 408.321H3.29545V405.551H6.34943C6.87974 405.551 7.32244 405.459 7.67756 405.274C8.03741 405.089 8.30966 404.831 8.49432 404.5C8.67898 404.164 8.77131 403.773 8.77131 403.328C8.77131 402.878 8.67898 402.49 8.49432 402.163C8.30966 401.832 8.03741 401.576 7.67756 401.396C7.31771 401.216 6.875 401.126 6.34943 401.126H4.61648V412.838H1.10085ZM14.1477 412.838V401.929H17.5213V403.917H17.6349C17.8338 403.198 18.1581 402.663 18.608 402.312C19.0578 401.957 19.581 401.78 20.1776 401.78C20.3385 401.78 20.5043 401.791 20.6747 401.815C20.8452 401.834 21.0038 401.865 21.1506 401.907V404.926C20.9848 404.869 20.767 404.824 20.4972 404.791C20.232 404.758 19.9953 404.741 19.7869 404.741C19.375 404.741 19.0033 404.834 18.6719 405.018C18.3452 405.198 18.0871 405.452 17.8977 405.778C17.7131 406.1 17.6207 406.479 17.6207 406.915V412.838H14.1477ZM27.0916 413.044C25.9458 413.044 24.9609 412.809 24.1371 412.341C23.3179 411.867 22.6858 411.209 22.2408 410.366C21.8004 409.519 21.5803 408.536 21.5803 407.419C21.5803 406.297 21.8004 405.314 22.2408 404.471C22.6858 403.624 23.3179 402.966 24.1371 402.497C24.9609 402.023 25.9458 401.787 27.0916 401.787C28.2375 401.787 29.2199 402.023 30.0391 402.497C30.8629 402.966 31.495 403.624 31.9354 404.471C32.3804 405.314 32.603 406.297 32.603 407.419C32.603 408.536 32.3804 409.519 31.9354 410.366C31.495 411.209 30.8629 411.867 30.0391 412.341C29.2199 412.809 28.2375 413.044 27.0916 413.044ZM27.1129 410.423C27.5296 410.423 27.8823 410.295 28.1712 410.04C28.46 409.784 28.6802 409.429 28.8317 408.974C28.9879 408.52 29.0661 407.994 29.0661 407.398C29.0661 406.791 28.9879 406.261 28.8317 405.807C28.6802 405.352 28.46 404.997 28.1712 404.741C27.8823 404.486 27.5296 404.358 27.1129 404.358C26.6821 404.358 26.3175 404.486 26.0192 404.741C25.7256 404.997 25.5007 405.352 25.3445 405.807C25.1929 406.261 25.1172 406.791 25.1172 407.398C25.1172 407.994 25.1929 408.52 25.3445 408.974C25.5007 409.429 25.7256 409.784 26.0192 410.04C26.3175 410.295 26.6821 410.423 27.1129 410.423ZM39.4744 413.044C38.3239 413.044 37.3366 412.807 36.5128 412.334C35.6937 411.86 35.0639 411.202 34.6236 410.359C34.1832 409.512 33.9631 408.532 33.9631 407.419C33.9631 406.301 34.1832 405.321 34.6236 404.479C35.0687 403.631 35.7008 402.97 36.5199 402.497C37.3438 402.023 38.3262 401.787 39.4673 401.787C40.4759 401.787 41.3542 401.969 42.1023 402.334C42.8551 402.698 43.4422 403.214 43.8636 403.882C44.2898 404.545 44.5147 405.324 44.5384 406.219H41.2926C41.2263 405.66 41.0369 405.222 40.7244 404.905C40.4167 404.587 40.0142 404.429 39.517 404.429C39.1146 404.429 38.7618 404.542 38.4588 404.77C38.1558 404.992 37.919 405.324 37.7486 405.764C37.5829 406.2 37.5 406.739 37.5 407.383C37.5 408.027 37.5829 408.572 37.7486 409.017C37.919 409.457 38.1558 409.791 38.4588 410.018C38.7618 410.241 39.1146 410.352 39.517 410.352C39.839 410.352 40.1231 410.283 40.3693 410.146C40.6203 410.009 40.8262 409.808 40.9872 409.542C41.1482 409.273 41.25 408.946 41.2926 408.562H44.5384C44.5052 409.462 44.2803 410.248 43.8636 410.92C43.4517 411.593 42.8717 412.116 42.1236 412.49C41.3802 412.859 40.4972 413.044 39.4744 413.044ZM51.4151 413.044C50.274 413.044 49.2892 412.819 48.4606 412.369C47.6367 411.915 47.0022 411.268 46.5572 410.43C46.1168 409.587 45.8967 408.586 45.8967 407.426C45.8967 406.299 46.1192 405.314 46.5643 404.471C47.0094 403.624 47.6367 402.966 48.4464 402.497C49.256 402.023 50.2101 401.787 51.3086 401.787C52.0851 401.787 52.7953 401.907 53.4393 402.149C54.0832 402.39 54.6396 402.748 55.1083 403.221C55.5771 403.695 55.9416 404.28 56.2021 404.976C56.4625 405.667 56.5927 406.46 56.5927 407.355V408.221H47.1112V406.204H53.3612C53.3564 405.835 53.2688 405.506 53.0984 405.217C52.9279 404.928 52.6935 404.703 52.3952 404.542C52.1017 404.377 51.7631 404.294 51.3796 404.294C50.9914 404.294 50.6433 404.381 50.3356 404.557C50.0278 404.727 49.784 404.961 49.604 405.26C49.4241 405.553 49.3294 405.887 49.32 406.261V408.314C49.32 408.759 49.4076 409.149 49.5827 409.486C49.7579 409.817 50.0065 410.075 50.3285 410.26C50.6504 410.444 51.034 410.537 51.479 410.537C51.7868 410.537 52.0662 410.494 52.3171 410.409C52.5681 410.324 52.7835 410.198 52.9634 410.032C53.1433 409.867 53.2783 409.663 53.3683 409.422L56.5572 409.514C56.4246 410.229 56.1334 410.852 55.6836 411.382C55.2385 411.907 54.6538 412.317 53.9293 412.611C53.2049 412.899 52.3668 413.044 51.4151 413.044ZM67.8906 405.26L64.7017 405.345C64.6686 405.118 64.5786 404.916 64.4318 404.741C64.285 404.561 64.0933 404.422 63.8565 404.322C63.6245 404.218 63.3546 404.166 63.0469 404.166C62.6444 404.166 62.3011 404.247 62.017 404.407C61.7377 404.568 61.6004 404.786 61.6051 405.061C61.6004 405.274 61.6856 405.459 61.8608 405.615C62.0407 405.771 62.3603 405.897 62.8196 405.991L64.9219 406.389C66.0109 406.597 66.8205 406.943 67.3509 407.426C67.8859 407.909 68.1558 408.548 68.1605 409.344C68.1558 410.092 67.9332 410.743 67.4929 411.297C67.0573 411.851 66.4607 412.282 65.7031 412.589C64.9455 412.892 64.0791 413.044 63.1037 413.044C61.5459 413.044 60.3172 412.724 59.4176 412.085C58.5227 411.441 58.0114 410.579 57.8835 409.5L61.3139 409.415C61.3897 409.812 61.5862 410.115 61.9034 410.324C62.2206 410.532 62.6255 410.636 63.1179 410.636C63.563 410.636 63.9252 410.553 64.2045 410.388C64.4839 410.222 64.6259 410.002 64.6307 409.727C64.6259 409.481 64.517 409.284 64.304 409.138C64.0909 408.986 63.7571 408.868 63.3026 408.782L61.3991 408.42C60.3054 408.221 59.491 407.854 58.956 407.319C58.4209 406.78 58.1558 406.093 58.1605 405.26C58.1558 404.531 58.3499 403.908 58.7429 403.392C59.1359 402.871 59.6946 402.473 60.419 402.199C61.1435 401.924 61.9981 401.787 62.983 401.787C64.4602 401.787 65.625 402.097 66.4773 402.717C67.3295 403.333 67.8007 404.18 67.8906 405.26ZM79.3945 405.26L76.2056 405.345C76.1725 405.118 76.0825 404.916 75.9357 404.741C75.7889 404.561 75.5972 404.422 75.3604 404.322C75.1284 404.218 74.8585 404.166 74.5508 404.166C74.1483 404.166 73.805 404.247 73.521 404.407C73.2416 404.568 73.1043 404.786 73.109 405.061C73.1043 405.274 73.1895 405.459 73.3647 405.615C73.5446 405.771 73.8642 405.897 74.3235 405.991L76.4258 406.389C77.5148 406.597 78.3245 406.943 78.8548 407.426C79.3898 407.909 79.6597 408.548 79.6644 409.344C79.6597 410.092 79.4371 410.743 78.9968 411.297C78.5612 411.851 77.9646 412.282 77.207 412.589C76.4495 412.892 75.583 413.044 74.6076 413.044C73.0498 413.044 71.8211 412.724 70.9215 412.085C70.0266 411.441 69.5153 410.579 69.3874 409.5L72.8178 409.415C72.8936 409.812 73.0901 410.115 73.4073 410.324C73.7246 410.532 74.1294 410.636 74.6218 410.636C75.0669 410.636 75.4291 410.553 75.7085 410.388C75.9878 410.222 76.1299 410.002 76.1346 409.727C76.1299 409.481 76.021 409.284 75.8079 409.138C75.5948 408.986 75.261 408.868 74.8065 408.782L72.9031 408.42C71.8093 408.221 70.9949 407.854 70.4599 407.319C69.9248 406.78 69.6597 406.093 69.6644 405.26C69.6597 404.531 69.8538 403.908 70.2468 403.392C70.6398 402.871 71.1985 402.473 71.9229 402.199C72.6474 401.924 73.502 401.787 74.4869 401.787C75.9641 401.787 77.1289 402.097 77.9812 402.717C78.8335 403.333 79.3046 404.18 79.3945 405.26ZM85.4652 410.423V407.682L91.424 398.292H93.8601V402.014H92.4467L88.9595 407.54V407.653H97.5888V410.423H85.4652ZM92.4893 412.838V409.585L92.5604 408.385V398.292H95.8487V412.838H92.4893Z" fill="black"/>
<path d="M433.155 516.638C433.098 516.065 432.854 515.62 432.423 515.303C431.992 514.985 431.408 514.827 430.669 514.827C430.167 514.827 429.743 514.898 429.398 515.04C429.052 515.177 428.787 515.369 428.602 515.615C428.422 515.861 428.332 516.141 428.332 516.453C428.323 516.714 428.377 516.941 428.496 517.135C428.619 517.329 428.787 517.497 429 517.639C429.213 517.777 429.459 517.897 429.739 518.001C430.018 518.101 430.316 518.186 430.634 518.257L431.94 518.57C432.575 518.712 433.157 518.901 433.688 519.138C434.218 519.375 434.677 519.666 435.065 520.011C435.454 520.357 435.754 520.764 435.967 521.233C436.185 521.702 436.296 522.239 436.301 522.845C436.296 523.735 436.069 524.507 435.619 525.161C435.174 525.809 434.53 526.313 433.688 526.673C432.849 527.028 431.839 527.206 430.655 527.206C429.481 527.206 428.458 527.026 427.587 526.666C426.72 526.306 426.043 525.774 425.555 525.068C425.072 524.358 424.819 523.48 424.795 522.433H427.771C427.804 522.921 427.944 523.328 428.19 523.655C428.441 523.977 428.775 524.221 429.192 524.386C429.613 524.547 430.089 524.628 430.619 524.628C431.14 524.628 431.592 524.552 431.976 524.401C432.364 524.249 432.665 524.038 432.878 523.768C433.091 523.499 433.197 523.188 433.197 522.838C433.197 522.511 433.1 522.237 432.906 522.014C432.717 521.792 432.438 521.602 432.068 521.446C431.704 521.29 431.256 521.148 430.726 521.02L429.142 520.622C427.916 520.324 426.947 519.857 426.237 519.223C425.527 518.589 425.174 517.734 425.179 516.659C425.174 515.778 425.409 515.009 425.882 514.351C426.36 513.693 427.016 513.179 427.849 512.81C428.683 512.44 429.63 512.256 430.69 512.256C431.77 512.256 432.712 512.44 433.517 512.81C434.327 513.179 434.956 513.693 435.406 514.351C435.856 515.009 436.088 515.771 436.102 516.638H433.155ZM443.284 527.213C442.162 527.213 441.196 526.986 440.387 526.531C439.582 526.072 438.962 525.423 438.526 524.585C438.09 523.742 437.873 522.746 437.873 521.595C437.873 520.473 438.09 519.488 438.526 518.641C438.962 517.793 439.575 517.133 440.365 516.659C441.161 516.186 442.094 515.949 443.164 515.949C443.883 515.949 444.553 516.065 445.174 516.297C445.799 516.524 446.343 516.867 446.807 517.327C447.276 517.786 447.641 518.364 447.901 519.06C448.161 519.751 448.292 520.561 448.292 521.489V522.32H439.08V520.445H445.444C445.444 520.009 445.349 519.623 445.159 519.287C444.97 518.951 444.707 518.688 444.371 518.499C444.04 518.304 443.654 518.207 443.213 518.207C442.754 518.207 442.347 518.314 441.992 518.527C441.641 518.735 441.367 519.017 441.168 519.372C440.969 519.723 440.867 520.113 440.863 520.544V522.327C440.863 522.866 440.962 523.333 441.161 523.726C441.364 524.119 441.651 524.422 442.02 524.635C442.39 524.848 442.828 524.955 443.334 524.955C443.67 524.955 443.978 524.907 444.257 524.812C444.537 524.718 444.776 524.576 444.975 524.386C445.174 524.197 445.325 523.965 445.429 523.69L448.228 523.875C448.086 524.547 447.794 525.134 447.354 525.636C446.918 526.134 446.355 526.522 445.664 526.801C444.977 527.076 444.184 527.213 443.284 527.213ZM455.195 527.213C454.078 527.213 453.116 526.976 452.311 526.503C451.511 526.025 450.896 525.362 450.465 524.514C450.039 523.667 449.826 522.691 449.826 521.588C449.826 520.471 450.041 519.491 450.472 518.648C450.908 517.8 451.525 517.14 452.326 516.666C453.126 516.188 454.078 515.949 455.181 515.949C456.132 515.949 456.966 516.122 457.681 516.467C458.396 516.813 458.962 517.298 459.378 517.923C459.795 518.548 460.025 519.282 460.067 520.125H457.212C457.132 519.58 456.918 519.143 456.573 518.811C456.232 518.475 455.784 518.307 455.23 518.307C454.762 518.307 454.352 518.435 454.002 518.69C453.656 518.941 453.386 519.308 453.192 519.791C452.998 520.274 452.901 520.859 452.901 521.545C452.901 522.241 452.996 522.833 453.185 523.321C453.379 523.809 453.651 524.18 454.002 524.436C454.352 524.692 454.762 524.82 455.23 524.82C455.576 524.82 455.886 524.749 456.161 524.607C456.44 524.464 456.67 524.259 456.85 523.989C457.034 523.714 457.155 523.385 457.212 523.001H460.067C460.02 523.835 459.792 524.569 459.385 525.203C458.983 525.833 458.426 526.325 457.716 526.68C457.006 527.036 456.166 527.213 455.195 527.213ZM469 522.355V516.091H472.026V527H469.121V525.018H469.007C468.761 525.658 468.351 526.171 467.778 526.56C467.21 526.948 466.517 527.142 465.697 527.142C464.968 527.142 464.327 526.976 463.773 526.645C463.219 526.313 462.786 525.842 462.473 525.232C462.165 524.621 462.009 523.889 462.004 523.037V516.091H465.03V522.497C465.035 523.141 465.207 523.65 465.548 524.024C465.889 524.398 466.346 524.585 466.919 524.585C467.284 524.585 467.625 524.502 467.942 524.337C468.259 524.166 468.515 523.915 468.709 523.584C468.908 523.252 469.005 522.843 469 522.355ZM474.446 527V516.091H477.379V517.994H477.493C477.691 517.317 478.025 516.806 478.494 516.46C478.963 516.11 479.502 515.935 480.113 515.935C480.265 515.935 480.428 515.944 480.603 515.963C480.779 515.982 480.932 516.008 481.065 516.041V518.726C480.923 518.683 480.726 518.645 480.475 518.612C480.225 518.579 479.995 518.562 479.787 518.562C479.342 518.562 478.944 518.66 478.593 518.854C478.248 519.043 477.973 519.308 477.77 519.649C477.571 519.99 477.471 520.383 477.471 520.828V527H474.446ZM482.629 527V516.091H485.655V527H482.629ZM484.149 514.685C483.699 514.685 483.313 514.536 482.991 514.237C482.674 513.934 482.516 513.572 482.516 513.151C482.516 512.734 482.674 512.376 482.991 512.078C483.313 511.775 483.699 511.624 484.149 511.624C484.599 511.624 484.982 511.775 485.3 512.078C485.622 512.376 485.783 512.734 485.783 513.151C485.783 513.572 485.622 513.934 485.3 514.237C484.982 514.536 484.599 514.685 484.149 514.685ZM493.881 516.091V518.364H487.311V516.091H493.881ZM488.803 513.477H491.828V523.648C491.828 523.927 491.871 524.145 491.956 524.301C492.042 524.453 492.16 524.559 492.311 524.621C492.468 524.682 492.648 524.713 492.851 524.713C492.993 524.713 493.135 524.701 493.277 524.678C493.419 524.649 493.528 524.628 493.604 524.614L494.08 526.865C493.928 526.912 493.715 526.967 493.441 527.028C493.166 527.095 492.832 527.135 492.439 527.149C491.71 527.178 491.071 527.08 490.522 526.858C489.977 526.635 489.553 526.29 489.25 525.821C488.947 525.352 488.798 524.76 488.803 524.045V513.477ZM497.72 531.091C497.336 531.091 496.976 531.06 496.64 530.999C496.309 530.942 496.034 530.868 495.816 530.778L496.498 528.52C496.853 528.629 497.173 528.688 497.457 528.697C497.746 528.707 497.994 528.641 498.203 528.499C498.416 528.357 498.589 528.115 498.721 527.774L498.899 527.312L494.985 516.091H498.167L500.426 524.102H500.539L502.819 516.091H506.022L501.782 528.179C501.579 528.766 501.302 529.277 500.951 529.713C500.606 530.153 500.168 530.492 499.637 530.729C499.107 530.97 498.468 531.091 497.72 531.091Z" fill="black"/>
<path d="M852.316 297.895C854.011 298.825 856.138 298.204 857.067 296.509L872.213 268.889C873.142 267.194 872.521 265.067 870.826 264.137C869.132 263.208 867.004 263.828 866.075 265.523L852.612 290.075L828.061 276.612C826.366 275.683 824.239 276.303 823.309 277.998C822.38 279.693 823.001 281.82 824.695 282.75L852.316 297.895ZM612.998 34.8263L611.734 38.0899C683.362 65.8412 732.224 93.5284 768.583 132.467C804.933 171.397 829.075 221.884 850.638 295.806L853.998 294.826L857.358 293.846C835.658 219.455 811.122 167.769 773.699 127.69C736.284 87.6204 686.278 59.4643 614.263 31.5626L612.998 34.8263Z" fill="black"/>
<path d="M302.767 36.2731C303.565 34.5127 302.785 32.4384 301.025 31.64L272.337 18.6292C270.577 17.8308 268.503 18.6106 267.704 20.371C266.906 22.1314 267.686 24.2058 269.446 25.0042L294.946 36.5693L283.381 62.0692C282.582 63.8297 283.362 65.904 285.123 66.7024C286.883 67.5008 288.957 66.7209 289.756 64.9605L302.767 36.2731ZM58.5708 294.82L61.9207 295.833C84.1697 222.31 108.078 171.492 144.153 132.29C180.218 93.097 228.734 65.2014 300.811 38.1036L299.579 34.8274L298.347 31.5513C225.812 58.8213 176.133 87.1996 139.002 127.55C101.88 167.891 77.5903 219.885 55.2208 293.806L58.5708 294.82Z" fill="black"/>
<path d="M674.596 756.826C674.143 758.705 675.299 760.595 677.178 761.049L707.799 768.438C709.678 768.891 711.569 767.735 712.022 765.856C712.476 763.977 711.32 762.086 709.441 761.633L682.222 755.065L688.79 727.846C689.243 725.967 688.088 724.076 686.208 723.623C684.329 723.17 682.439 724.325 681.985 726.204L674.596 756.826ZM865.863 457.001L862.382 456.634C854.344 533.029 840.41 587.434 812.344 632.716C784.285 677.987 741.875 714.502 676.173 754.66L677.999 757.647L679.824 760.633C745.943 720.22 789.406 683.012 818.294 636.404C847.175 589.807 861.262 534.175 869.344 457.367L865.863 457.001Z" fill="black"/>
<path d="M62.6738 472.301C61.1837 471.07 58.9775 471.28 57.7463 472.77L37.6818 497.053C36.4506 498.543 36.6604 500.749 38.1506 501.981C39.6407 503.212 41.8468 503.002 43.0781 501.512L60.9131 479.927L82.4981 497.762C83.9882 498.993 86.1943 498.783 87.4256 497.293C88.6569 495.803 88.447 493.597 86.9569 492.366L62.6738 472.301ZM248.309 775.645L250.164 772.677C185.025 731.964 142.234 695.59 113.838 650.514C85.4487 605.449 71.2208 551.325 63.9287 474.668L60.4444 474.999L56.9601 475.331C64.2986 552.474 78.6876 607.849 107.915 654.245C137.136 700.63 180.962 737.679 246.454 778.613L248.309 775.645Z" fill="black"/>
<defs>
<linearGradient id="paint0_linear_729_474" x1="407" y1="191.338" x2="550" y2="647.338" gradientUnits="userSpaceOnUse">
<stop offset="1" stop-color="#F4BABA"/>
</linearGradient>
<linearGradient id="paint1_linear_729_474" x1="330" y1="145.338" x2="527.5" y2="654.338" gradientUnits="userSpaceOnUse">
<stop offset="1" stop-color="#EFD073"/>
</linearGradient>
<linearGradient id="paint2_linear_729_474" x1="772.5" y1="119.838" x2="1015.5" y2="801.838" gradientUnits="userSpaceOnUse">
<stop stop-color="#98F1AE"/>
<stop offset="1" stop-color="#1A8341"/>
</linearGradient>
<linearGradient id="paint3_linear_729_474" x1="169.5" y1="13.8379" x2="719.5" y2="750.838" gradientUnits="userSpaceOnUse">
<stop offset="1" stop-color="#C062EF"/>
</linearGradient>
</defs>
</svg>
