<svg width="42" height="41" viewBox="0 0 42 41" fill="none" xmlns="http://www.w3.org/2000/svg">
<path d="M21 0.5C32.3443 0.5 41.4998 9.26472 41.5 20.0273C41.5 30.7902 32.3444 39.5557 21 39.5557C9.65556 39.5557 0.5 30.7902 0.5 20.0273C0.500247 9.26472 9.65572 0.5 21 0.5Z" fill="#DFDFDF" stroke="#434CFF"/>
<path d="M33.023 11.4723C33.0376 10.9334 32.5913 10.4842 32.0263 10.469L22.8193 10.2204C22.2543 10.2051 21.7845 10.6296 21.77 11.1685C21.7554 11.7074 22.2016 12.1566 22.7666 12.1718L30.9507 12.3928L30.7399 20.1984C30.7254 20.7373 31.1716 21.1865 31.7366 21.2018C32.3016 21.217 32.7714 20.7925 32.7859 20.2537L33.023 11.4723ZM13 28.6113L13.7047 29.3208L32.7047 12.1541L32 11.4447L31.2953 10.7352L12.2953 27.9019L13 28.6113Z" fill="#434CFF"/>
</svg>
